<svg xmlns="http://www.w3.org/2000/svg" xml:space="preserve" width="830.566px" height="112.5px" x="0px" y="0px" viewBox="0 0 830.566 112.5"><path fill="#D71921" d="M340.057 24.53h9.324c.609 0 1.093-.455 1.093-1.024V6.955c0-.574-.485-1.044-1.093-1.044h-13.098c-15.142 0-23.18 4.561-27.76 14.256L280.04 85.833c-1.732 3.918-4.225 5.778-9.132 5.778V6.955c0-.574-.494-1.044-1.108-1.044h-20.924c-.608 0-1.113.47-1.113 1.044v101.449c0 1.009.88 1.83 1.96 1.83h23.466c15.141 0 22.067-4.565 26.652-14.231l28.111-64.85c2.256-4.6 5.496-6.623 12.105-6.623M59.873 92.061H24.475V67.6h35.398c9.537 0 15.977 5.479 15.977 12.228 0 6.761-6.44 12.233-15.977 12.233m24.386-33.979c8.39-3.28 15.36-10.68 15.36-22.893 0-18.223-16.621-29.279-36.645-29.279H1.097c-.603 0-1.098.47-1.098 1.044V23.51c0 .564.495 1.02 1.098 1.02h57.588c9.305 0 15.582 5.351 15.582 11.93 0 6.594-6.277 11.936-15.582 11.936h-34.21V36.099c0-.569-.495-1.034-1.098-1.034H1.097c-.603 0-1.098.465-1.098 1.034v73.096c0 .572.495 1.037 1.098 1.037h60.987c22.794 0 39.113-10.006 39.113-30.406 0-10.015-6.283-18.31-16.938-21.744m277.454 50.967L325.84 65.846c-.11-.133-.257-.099-.321.035l-9.666 22.234c-.045.144-.045.297.054.41l15.689 19.807c1.099 1.365 2.36 1.904 4.245 1.904h25.277c.733 0 1.04-.668.595-1.187M140.5 35.063h-20.958c-.608 0-1.098.47-1.098 1.04v73.09c0 .578.49 1.043 1.098 1.043h20.959c.608 0 1.103-.465 1.103-1.043v-73.09c0-.57-.495-1.04-1.104-1.04"/><path fill="#D71921" d="M226.689 5.91h-20.944c-.603 0-1.093.47-1.093 1.044v84.655c-4.912 0-7.39-1.859-9.117-5.777l-28.497-65.666c-4.58-9.695-12.614-14.256-27.76-14.256h-19.737c-.608 0-1.098.47-1.098 1.044V23.51c0 .564.49 1.02 1.098 1.02h15.963c6.608 0 9.843 2.022 12.11 6.628l28.11 64.844c4.586 9.666 11.501 14.232 26.648 14.232h23.476c1.073 0 1.934-.821 1.934-1.83V6.953c0-.574-.49-1.044-1.093-1.044"/><path fill="#FFF" d="m565.578 62.158.42.207 7.217-9.506-.741-.5c-13.484-9.007-23.951-21.725-23.946-37.327V4.64h-17.511v10.392c.015 16.28-12.752 31.44-24.209 38.692l-.484.292 7.228 9.517.444-.213c8.993-4.457 20.963-16.506 25.806-25.385 4.619 8.325 16.136 19.534 25.776 24.223M387.887 74.104h48.041v34.889h10.536c4.492-.014 7.074-3.066 7.074-7.469v-27.42h44.657v-12.33H387.887zm35.423-49.302h43.396v12.035c0 1.138-.974 2.068-2.181 2.068h-39.048c-1.202 0-2.167-.935-2.167-2.068zm-1.998 26.029h47.452c9.76-.01 13.578-4.927 13.584-10.863V2.28h-15.509v10.695h-43.657V2.28h-15.483v37.688c.018 5.936 3.837 10.853 13.613 10.863M599.199 2.305h-16.165v73.823h9.621c4.145-.011 6.544-2.806 6.544-6.479V37.153h14.722V23.511h-14.722zm198.25 98.086c-8.662 0-15.563-5.896-15.568-13.063 0-7.173 6.906-13.06 15.567-13.07 8.632.011 15.537 5.897 15.567 13.07-.03 7.166-6.935 13.063-15.566 13.063m-.001-38.246c-17.397.023-31.593 11.203-31.613 25.183.021 13.974 14.216 25.153 31.613 25.173 17.383-.02 31.545-11.2 31.584-25.173-.039-13.98-14.201-25.16-31.584-25.183M815.855 2.28v20.627h-7.208V2.28h-14.7v55.219h8.354c4.013 0 6.347-2.716 6.347-6.258V35.976h7.208v21.523h8.374c3.991 0 6.337-2.716 6.337-6.258V2.281zm-140.878 9.69c9.066.01 16.27 5.857 16.294 12.93-.026 7.074-7.228 12.946-16.294 12.946-9.077 0-16.299-5.872-16.319-12.945.02-7.074 7.241-12.92 16.319-12.931m0 37.841c17.684-.02 32.147-11.06 32.173-24.91C707.124 11.061 692.66.015 674.977 0c-17.685.015-32.162 11.06-32.183 24.9.019 13.851 14.498 24.892 32.183 24.911m-52.311 19.935h104.605V57.578H622.666zm33.661 26.4V78.195h-17.04V99.49c.03 5.931 3.838 10.854 13.637 10.873h63.104v-12.15h-57.511c-1.211 0-2.189-.915-2.189-2.068m105.604-44.86c-6.955 0-11.59-5.209-11.604-11.763.015-6.55 4.65-11.753 11.604-11.763 6.985.01 11.62 5.214 11.65 11.763-.03 6.554-4.665 11.763-11.65 11.763m24.901-11.526c0-6.905-3.151-13.093-8.567-17.184h9.695V11.743h-17.788V2.28h-16.571v9.463h-17.916v10.833h9.942c-5.426 4.09-8.587 10.279-8.587 17.184.021 12.327 10.938 22.25 24.891 22.285 13.741-.035 24.901-9.958 24.901-22.285m-240.21 56.406V72.917h-17.244V99.49c.021 5.931 3.849 10.854 13.613 10.873h58.705v-12.15h-52.898c-1.201 0-2.177-.915-2.176-2.047"/></svg>