<svg xmlns="http://www.w3.org/2000/svg" id="_레이어_1" version="1.1" viewBox="0 0 140.6 37.7"><defs><style>.cls-1{fill:#ffffff;stroke-width:0}</style></defs><path d="M46.3 8.4V5.6h4.1v2.8h5.4V11h-2.9c1.3 1.5 2.1 3.7 2.1 6.3 0 4.9-2.8 8.6-6.8 8.6-4.1 0-6.8-3.7-6.8-8.6s.8-4.7 2.1-6.3h-2.7V8.4h5.3Zm2.1 2.7c-1.6 0-2.9 2.4-2.9 6.2 0 3.6 1.2 6 2.8 6s2.9-2.3 2.9-6-1.2-6.2-2.8-6.2m14 5.2V32h-3.9V5.6h3.9v8h3.8v2.6h-3.8ZM73.5 21.8h6.6c1.8 0 3.1 0 4.8-.8V5.6h3.9v8h3.8v2.6h-3.8v15.7h-3.9v-8.4c-1.4.6-3.2.8-4.9.8h-8.7c-1.7 0-3-1.7-3-3.6V6.8h3.9v13.9c0 .7.4 1.1 1.3 1.1M104.9 5.2c4.3 0 7.3 3.6 7.3 7.9s-1 4.8-2.8 6.3h7.3V22H100v6.2c0 .7.5 1.2 1.2 1.2h12.7V32h-15c-1.6 0-2.8-1.6-2.8-3.5v-6.6h-2.9v-2.6h7.3c-1.8-1.5-2.8-3.8-2.8-6.3 0-4.2 2.9-7.9 7.3-7.9Zm0 2.6c-1.9 0-3.4 2.3-3.4 5.2s1.5 5.2 3.3 5.2 3.3-2.2 3.3-5.2-1.4-5.2-3.3-5.2ZM121.4 7.5V5h4.1v2.5h4.3v2.6h-1.9c.9 1.1 1.4 2.4 1.4 3.9 0 3.4-2.6 6.1-5.9 6.1-3.4 0-5.9-2.8-5.9-6.1s.5-2.8 1.4-3.9h-1.7V7.5zm2.1 2.8c-1.2 0-2.1 1.6-2.1 3.7s.9 3.5 2.1 3.5 2.1-1.6 2.1-3.5-.8-3.7-2.1-3.7m7.6 9.5V5.6h3.8v5.5h1.9V5.6h3.8v20.6c0 3.9-3.7 6.7-7.3 6.7s-7.4-2.7-7.4-6.7c0-3.1 2.3-5.6 5.2-6.4m2.1 2.3c-1.6 0-3.4 1.5-3.4 4.1s1.7 4 3.4 4 3.4-1.5 3.4-4c0-2.7-1.7-4.1-3.4-4.1m1.7-8.3v5.9c.7.1 1.3.4 1.9.7v-6.5h-1.9Z" class="cls-1"/><path d="M14.5 3.6c0 1.9 1.6 3.5 3.5 3.5s3.5-1.6 3.5-3.5 0-.6-.2-.8c-.3-.6-.6-1-.6-1.7 0-1-1.3-1-2-1s-1.6.1-2.3.5c-.6.3-1 .7-1.4 1.2s-.5 1.2-.6 1.8" style="stroke-width:0;fill:#ffffff"/><path d="M35.9 8c-.3-.4-.8-.4-1.7-.2-1.4.3-5.5 1.1-12.1 1.3-3 .1-6.3.1-9.7-.2-2.7-.2-7.9-1.1-9-1.2-.6 0-2-.2-2.7.4-1 .8-.7 2-.1 2.9 0 0 1.2 2 4.1 2.6 4.2.7 10.7.5 12.8.3 4.8-.4 8.4-1.1 11.3-1.9 0 0 3.9-1.1 5.8-2.2.7-.4 1.7-1.2 1.3-1.9ZM21.7 16.6c-2.4-1.3-5.2-1.3-7.5 0-3.8 2.1-5.1 6.9-2.8 10.7 1.8 2.9 4.3 2.2 5 1.5.9-1 .5-2 0-2.6-.9-1.2-1-2-1-2.5 0-1.5 1.2-2.8 2.8-2.8s1.6.4 2.1 1c.7.9.8 2.1.8 3.1-.3 5.9-2.7 11-2.8 11.3s-.3.9.2 1.2c.4.2.8 0 1.3-.4 1.1-.9 3.2-3.6 4.4-6.2.6-1.4 2.1-5.2 1.6-8.9-.5-2.9-2.4-4.6-4-5.5Z" class="cls-1"/></svg>