<svg xmlns="http://www.w3.org/2000/svg" xml:space="preserve" width="334.617px" height="63.084px" x="0px" y="0px" viewBox="0 0 334.617 63.084"><path fill="#0091D1" d="M0 63.056h63.055V.004H0z"/><path fill="#0091D1" d="m-.001.004 15.757 15.769L31.526.004z"/><path fill="#009CD8" d="M-.001.004V31.53l15.757-15.758z"/><path fill="#0091D1" d="M31.525 31.53 15.768 15.761-.001 31.53z"/><path fill="#0082C9" d="M31.525 31.53V.004l-15.757 15.76z"/><path fill="#0070BB" d="M31.525.004V31.53l15.758-15.758z"/><path fill="#004C98" d="M63.052 31.53 47.295 15.761 31.525 31.53z"/><path fill="#0082C9" d="M-.001 31.531 15.756 47.3l15.77-15.769z"/><path fill="#0070BB" d="M-.001 31.531v31.527l15.757-15.761z"/><path fill="#0060AF" d="M31.525 63.056 15.768 47.289-.002 63.057h31.527z"/><path fill="#00529C" d="M31.525 63.056V31.53L15.768 47.29z"/><path fill="#1C378A" d="M31.525 31.531 47.283 47.3l15.769-15.769z"/><path fill="#004C98" d="M31.525 31.531v31.527l15.758-15.761z"/><path fill="#1C378A" d="M63.052 63.056 47.295 47.289l-15.77 15.768h31.527z"/><path fill="#1C378A" d="M63.052 63.056V31.53L47.295 47.29z"/><path fill="#0060AF" d="m31.525.004 15.758 15.769L63.052.004z"/><path fill="#00529C" d="M63.052 31.53V.004l-15.757 15.76z"/><path fill="#FFF" d="M63.052 39.417 42.865 20.19 12.229 50.902l11.176 11.175 19.46-19.166 20.187 20.076zM334.615 3.02h-9.062v13.726h-4.362l.006-13.726h-9.064l-.001 31.863h9.06v-12.56h4.363v15.456h9.059zm-56.64 9.924h31.465V7.395h-11.177l.005-6.054h-9.063v6.054h-13.387l2.011 5.549zm-64.128 24.345h58.669v-5.55h-60.68zm44.848-22.191c-.011-6.844-7.075-12.298-15.723-12.31-8.647.012-15.714 5.466-15.724 12.311.01 6.84 7.076 12.297 15.724 12.309 8.648-.014 15.712-5.469 15.723-12.31m-8.226 0c-.008 3.472-3.33 6.337-7.496 6.337s-7.49-2.867-7.497-6.337c.007-3.473 3.331-6.338 7.497-6.339 4.165.001 7.488 2.867 7.496 6.339m-71.155 22.194h25.854v-5.549h-60.676l2.009 5.547h23.754v5.07l-19.46.003 2.011 5.547h35.271v12.717h9.077l.003-18.264h-17.842v-5.071zm-22.31-9.737 39.771.003v-.208l-.003-24.134h-9.059v7.97h-27.309l-.005-7.968h-9.056l-.001 18.425c.238 3.066 2.639 5.567 5.662 5.912m3.4-10.817h27.309v5.259h-26.429c-.463-.006-.638-.193-.755-.401a1.1 1.1 0 0 1-.116-.438zM95.171 60.592h38.406v-5.601H99.421c-.257-.002-.365-.129-.457-.296-.085-.164-.096-.334-.1-.334l.003-13.48-9.135.003.002 14.347a5.694 5.694 0 0 0 5.437 5.359m38.392-18.391.005-38.983h-9.063V17.92l-3.298-3.299s-.988-.989-1.979 0l-4.443 4.445s-.992.99 0 1.979l4.443 4.445s.991.99 1.979 0l3.298-3.297v20.005zm-31.319-31.688h12.906V4.964H81.533l2.013 5.547h10.991c.01.279-.093 4.026-.424 5.928-1.001 5.709-4.818 9.727-8.405 12.319-3.587 2.595-7.135 3.827-7.135 3.827l2.287 4.61.157-.033c11.359-2.381 16.211-9.851 17.373-11.956 1.163 2.105 6.012 9.573 17.373 11.956l.157.033 2.288-4.61s-3.55-1.232-7.136-3.827c-3.587-2.593-7.402-6.61-8.402-12.319-.333-1.902-.436-5.647-.426-5.928m119.609 30.406v14.439a5.56 5.56 0 0 0 5.311 5.235h38.53v-5.536h-34.287c-.216-.006-.297-.116-.378-.303a1.4 1.4 0 0 1-.076-.401v-.001l-.007-13.434zm57.29-14.983c.012 6.129 6.342 11.011 14.079 11.022 7.738-.014 14.063-4.894 14.075-11.022-.013-6.134-6.337-11.018-14.075-11.028-7.737.011-14.067 4.894-14.08 11.026m7.4 0c.007-3.088 2.966-5.641 6.681-5.641 3.713 0 6.672 2.553 6.677 5.643-.005 3.086-2.964 5.64-6.677 5.64-3.715 0-6.674-2.554-6.681-5.64m12.1 24.28c.009 7.153 7.395 12.86 16.439 12.874 9.043-.014 16.43-5.721 16.44-12.872-.011-7.15-7.397-12.856-16.44-12.871-9.045.014-16.431 5.721-16.439 12.871m8.585 0c.01-3.641 3.49-6.64 7.854-6.64 4.362 0 7.847 2.999 7.855 6.64-.009 3.64-3.493 6.64-7.854 6.64-4.363-.001-7.845-3.001-7.855-6.64"/></svg>