<svg xmlns="http://www.w3.org/2000/svg" xml:space="preserve" width="630.16px" height="138.85px" x="0px" y="0px" viewBox="0 0 630.16 138.85"><path fill="#FFE300" d="M125.819 138.85H13.04c-7.199.002-13.037-5.832-13.039-13.031V13.035C-.001 5.838 5.832.002 13.029 0h112.794c7.199-.002 13.037 5.832 13.039 13.031v112.783c-.002 7.2-5.839 13.035-13.039 13.035"/><path fill="#1C1C1C" d="M92.688 69.425h-.003c10.543-6.937 13.467-21.105 6.531-31.648a22.85 22.85 0 0 0-19.087-10.292H41.821a1.317 1.317 0 0 0-1.323 1.314v81.248a1.32 1.32 0 0 0 1.319 1.326H80.13c12.622 0 22.854-10.233 22.854-22.855a22.86 22.86 0 0 0-10.296-19.093M73.882 88.519H66.69V50.331h7.192z"/><g fill="#FFF"><path d="m211.22 53.487 6.339 4.702-16.607 20.741 19.199 22.941-6.338 4.994-22.371-27.553zM187.894 105.523h-8.07v-71.81l8.07-1.83zM244.438 54.058c-5.473 0-11.618 1.73-16.705 4.61l2.4 5.666c4.124-1.92 9.407-3.364 14.108-3.364 6.724 0 10.277 3.175 10.277 11.143v4.127h-10.084v.004c-12.956 0-19.869 5.374-19.869 15.646 0 9.025 5.375 14.4 14.302 14.4 5.087 0 11.52-2.302 16.516-6.335l.957 5.567h5.956V72.501c0-12.676-5.855-18.443-17.858-18.443m-4.127 45.705c-5.189 0-8.069-2.979-8.069-8.259 0-6.526 4.131-9.6 13.251-9.6h9.025v12.099h.003c-3.367 3.265-9.508 5.76-14.21 5.76M308.084 53.487l6.334 4.702-16.61 20.741 19.2 22.941-6.331 4.994-22.371-27.553zM284.75 105.523h-8.062v-71.81l8.062-1.83zM341.295 54.058c-5.473 0-11.615 1.73-16.705 4.61l2.403 5.666c4.127-1.92 9.407-3.364 14.112-3.364 6.724 0 10.269 3.175 10.269 11.143v4.127h-10.079v.004c-12.957 0-19.873 5.374-19.873 15.646 0 9.025 5.375 14.4 14.305 14.4 5.092 0 11.524-2.302 16.514-6.335l.963 5.567h5.953V72.501c-.001-12.676-5.863-18.443-17.862-18.443m10.079 39.945c-3.36 3.265-9.505 5.76-14.207 5.76-5.182 0-8.062-2.979-8.062-8.259 0-6.526 4.127-9.6 13.247-9.6h9.021zM393.118 54.066c-13.916 0-22.461 9.41-22.461 26.305 0 16.804 8.446 26.116 22.461 26.116 14.116 0 22.47-9.313 22.47-26.116 0-16.895-8.447-26.305-22.47-26.305m0 45.795c-8.927 0-14.108-6.72-14.108-19.49 0-12.768 5.182-19.684 14.108-19.684s14.116 6.916 14.116 19.684c0 12.77-5.189 19.49-14.116 19.49M451.983 53.393a21.93 21.93 0 0 0-11.52 3.262V31.596l-12.865 2.306v70.087c3.553 1.538 11.421 2.974 18.817 2.974 15.938 0 25.538-10.461 25.538-28.032.001-16.222-6.337-25.538-19.97-25.538m-6.916 43.875c-1.243 0-2.589 0-4.604-.291V64.916a23 23 0 0 1 6.913-1.156c9.119 0 11.52 5.669 11.52 15.458 0 12.963-5.759 18.05-13.829 18.05M499.394 53.393c-6.622 0-13.825 2.018-18.724 5.378l3.553 8.833a28.34 28.34 0 0 1 13.636-3.356c7.582 0 9.313 3.163 9.313 8.73v1.73h-8.069c-13.728 0-21.018 5.563-21.018 16.222 0 10.08 5.469 15.938 15.355 15.938 4.513 0 10.084-1.637 15.27-5.662l1.436 4.32h9.025V72.879c0-13.148-6.815-19.486-19.777-19.486m7.778 39.461c-2.306 2.015-6.725 4.033-11.143 4.033-4.214 0-6.33-2.404-6.33-6.055 0-5.084 3.65-7.869 10.56-7.869h6.913zM530.68 54.931h9.12l1.92 5.083c4.513-4.032 10.756-6.617 16.131-6.617 11.327 0 16.988 7.003 16.988 19.676v32.45h-12.857V72.687c0-5.662-2.117-8.062-8.931-8.062-2.688 0-6.527.771-9.506 1.92v38.978H530.68zM612.694 78.639l17.472 20.931-9.697 7.683-21.211-26.021v24.291h-12.865V33.902l12.865-2.306v46.563l19.388-26.305 9.6 6.724z"/></g></svg>