<svg xmlns="http://www.w3.org/2000/svg" xml:space="preserve" width="1061.965px" height="200px" x="0px" y="0px" viewBox="0 0 1061.965 200"><path fill="#0091D1" d="M.002 199.999h200v-200h-200z"/><path fill="#0091D1" d="m.002-.001 49.987 50.022L99.999.005z"/><path fill="#009AD8" d="M.002-.001V99.99l49.987-49.969z"/><path fill="#0091D1" d="M100 99.991 50.019 49.98.002 99.996z"/><path fill="#0082C9" d="M100 99.991V0L50.019 49.98z"/><path fill="#0070BB" d="M100-.001V99.99l49.987-49.969z"/><path fill="#004C98" d="M200.002 99.991 150.016 49.98l-50.01 50.016z"/><path fill="#0082C9" d="m.002 99.991 49.987 50.021 50.01-50.016z"/><path fill="#0070BB" d="M.002 99.991v100.008l49.987-49.981z"/><path fill="#0066B3" d="m100 199.999-49.981-50.021L.002 199.993z"/><path fill="#00529C" d="M100 199.999v-99.991l-49.981 49.97z"/><path fill="#1A3282" d="m100 99.991 49.987 50.021 50.01-50.016z"/><path fill="#004C98" d="M100 99.991v100.008l49.987-49.981z"/><path fill="#1A3282" d="m200.002 199.999-49.986-50.021-50.01 50.016z"/><path fill="#1A3282" d="M200.002 199.999v-99.991l-49.986 49.97z"/><path fill="#0066B3" d="m100-.001 49.987 50.022L199.997.005z"/><path fill="#00529C" d="M200.002 99.991V0l-49.986 49.98z"/><path fill="#FFF" d="m199.996 125.021-64.027-61L38.8 161.447l35.449 35.449 61.72-60.797 64.027 63.684zM1061.967 9.471h-28.741v43.536h-13.848l.012-43.53h-28.742l-.006 101.061h28.736V70.7h13.842v49.023h28.729zM882.313 40.947h99.799v-17.6h-35.449l.017-19.194h-28.747v19.194h-42.461l6.368 17.6zm-203.418 77.227h186.1v-17.611h-192.47zm142.259-70.391c-.035-21.707-22.449-39.008-49.87-39.055-27.428.047-49.841 17.354-49.876 39.055.035 21.701 22.448 39.002 49.876 39.038 27.421-.035 49.835-17.336 49.87-39.031m-26.101 0c-.023 11.002-10.558 20.088-23.769 20.088-13.217 0-23.758-9.086-23.781-20.094.023-11.014 10.564-20.1 23.781-20.112 13.205.012 23.745 9.098 23.769 20.112m-221.04 87.142h81.247v-18.955H463.762l6.334 18.955h74.883v58.763h29.028zm57.26-36.384 7.234-14.573-.801-.193c-.029-.012-13.088-3.091-27.654-10.885-14.374-7.684-30.104-19.907-36.244-38.096h56.057V17.324H489.166l6.334 17.471h49.999c-6.136 18.189-21.87 30.413-36.238 38.096-14.578 7.794-27.638 10.868-27.655 10.885l-.807.193 7.229 14.573.443-.035C527.73 95.883 554 67.188 559.656 60.48c5.65 6.702 31.926 35.409 71.191 38.026zM451.467 65.423s3.121-3.126 0-6.24l-13.994-13.994s-3.113-3.115-6.229 0l-11.978 11.978V12.468h-28.531c-.018-.018 0 103.146 0 103.146h28.525V67.433l11.978 11.984s3.121 3.114 6.234 0zm-195.916 44.6h125.683V92.564H315.46V59.481h-28.531v33.083h-37.705zm81.393-26.639h28.531V16.541l-101.908.018 6.328 17.47h67.055zm-26.094 75.731c.035 22.484 23.267 40.434 51.71 40.48 28.45-.047 51.687-17.996 51.71-40.48-.023-22.495-23.261-40.445-51.71-40.486-28.444.041-51.675 17.985-51.71 40.492m27.011 0c.023-11.463 10.979-20.9 24.704-20.9 13.714 0 24.669 9.437 24.699 20.895-.029 11.453-10.985 20.877-24.699 20.889-13.73-.012-24.681-9.442-24.704-20.889m366.433-29.444v45.81c.522 9.034 7.799 16.204 16.839 16.595l122.219.012v-17.564H734.607c-.701-.023-.946-.361-1.203-.958a4.1 4.1 0 0 1-.24-1.28l-.023-42.612zm181.717-47.521c.041 19.457 20.118 34.923 44.652 34.958 24.541-.035 44.617-15.507 44.652-34.958-.035-19.458-20.105-34.941-44.652-34.977-24.54.035-44.611 15.519-44.646 34.977m23.46 0c.029-9.799 9.407-17.903 21.187-17.903 11.786 0 21.164 8.104 21.181 17.903-.017 9.793-9.395 17.885-21.181 17.897-11.774-.011-21.158-8.104-21.187-17.897m38.382 77.023c.035 22.676 23.454 40.79 52.148 40.819 28.684-.029 52.108-18.143 52.148-40.819-.04-22.688-23.465-40.773-52.148-40.831-28.694.058-52.118 18.142-52.148 40.831m27.229 0c.035-11.546 11.072-21.053 24.92-21.064 13.837.012 24.886 9.524 24.915 21.064-.029 11.539-11.078 21.059-24.915 21.07-13.848-.012-24.891-9.524-24.914-21.07"/><path fill="#0091D1" d="M415.227 750.643h294.037V456.602H415.227z"/><path fill="#0091D1" d="m415.227 456.609 73.477 73.533 73.542-73.533z"/><path fill="#009AD8" d="M415.227 456.609v147.02l73.477-73.48z"/><path fill="#0091D1" d="m562.246 603.625-73.481-73.533-73.538 73.533z"/><path fill="#0082C9" d="M562.246 603.625v-147.02l-73.481 73.482z"/><path fill="#0070BB" d="M562.246 456.609v147.02l73.473-73.48z"/><path fill="#004C98" d="m709.26 603.625-73.481-73.533-73.532 73.533z"/><path fill="#0082C9" d="m415.227 603.625 73.477 73.537 73.542-73.533z"/><path fill="#0070BB" d="M415.227 603.625v147.021l73.477-73.484z"/><path fill="#0066B3" d="m562.246 750.643-73.481-73.537-73.538 73.533z"/><path fill="#00529C" d="M562.246 750.643V603.621l-73.481 73.484z"/><path fill="#1A3282" d="m562.246 603.625 73.477 73.537 73.541-73.533z"/><path fill="#004C98" d="M562.246 603.625v147.021l73.477-73.484z"/><path fill="#1A3282" d="m709.26 750.643-73.481-73.537-73.532 73.533z"/><path fill="#1A3282" d="M709.26 750.643V603.621l-73.481 73.488z"/><path fill="#0066B3" d="m562.246 456.609 73.477 73.533 73.541-73.533z"/><path fill="#00529C" d="M709.26 603.625v-147.02l-73.481 73.482z"/><path fill="#FFF" d="m709.26 640.404-94.132-89.67-142.865 143.225 52.117 52.113 90.748-89.369 94.132 93.621z"/><path fill="none" stroke="#7A7C7F" stroke-width="0.2" d="M767.188 815.473h-3.866"/><path fill="#002D6A" d="M861.179 816.547h-21.123v32H829.88l.005-32h-21.124v74.293h21.119v-29.283h10.18v36.035h21.119zm-132.063 23.139h73.365v-12.938h-26.063l.014-14.109h-21.133v14.109h-31.213l4.687 12.938zm-149.531 56.759h136.8v-12.938H574.903zm104.573-51.734c-.025-15.957-16.492-28.674-36.658-28.709-20.162.035-36.638 12.752-36.664 28.709.026 15.947 16.502 28.67 36.664 28.691 20.161-.021 36.637-12.744 36.658-28.691m-19.181 0c-.021 8.092-7.766 14.771-17.477 14.771-9.707 0-17.464-6.68-17.481-14.775.018-8.094 7.774-14.781 17.481-14.781 9.711 0 17.455 6.688 17.48 14.785m-162.493 64.057h59.729v-13.941H421.451l4.656 13.941h55.046v43.197h21.338zm42.101-26.758 5.313-10.709-.593-.133c-.021-.008-9.612-2.275-20.329-8.002-10.562-5.656-22.129-14.633-26.639-28.004h41.204V822.32H440.117l4.656 12.842h36.758c-4.51 13.371-16.076 22.348-26.639 28.004-10.716 5.73-20.315 7.984-20.328 8.002l-.593.129 5.313 10.717.326-.018c28.859-1.932 48.171-23.025 52.328-27.953 4.153 4.928 23.469 26.025 52.332 27.953zm-132.183-24.342s2.293-2.289 0-4.578l-10.287-10.287s-2.29-2.297-4.579 0l-8.805 8.801.004-32.857H367.76c-.013-.008 0 75.818 0 75.818h20.969l.004-35.41 8.805 8.807s2.289 2.293 4.579 0zm-144.007 32.795h92.38v-12.834h-48.351v-24.328h-20.973v24.328h-27.712zm59.831-19.586h20.965V821.74l-74.907.018 4.647 12.834h49.291zm-19.19 55.664c.026 16.537 17.103 29.736 38.016 29.762 20.909-.025 37.991-13.221 38.017-29.758-.026-16.535-17.107-29.73-38.012-29.756-20.917.025-37.995 13.221-38.021 29.756m19.856 0c.017-8.418 8.075-15.355 18.16-15.363 10.081.01 18.134 6.945 18.16 15.363-.026 8.414-8.075 15.355-18.16 15.355-10.089 0-18.143-6.941-18.16-15.355m269.361-21.639.005 33.67a12.966 12.966 0 0 0 12.378 12.207l89.838.008v-12.92h-79.938c-.511-.008-.695-.266-.885-.695a3.2 3.2 0 0 1-.172-.945v-.004l-.021-31.32zm133.584-34.935c.025 14.293 14.783 25.676 32.823 25.701 18.04-.025 32.793-11.408 32.819-25.701-.026-14.303-14.775-25.686-32.815-25.715-18.04.033-32.802 11.416-32.827 25.715m17.244 0c.021-7.199 6.92-13.156 15.579-13.156s15.553 5.957 15.569 13.156c-.017 7.193-6.91 13.15-15.569 13.16-8.659-.01-15.558-5.971-15.579-13.16m28.22 56.617c.021 16.678 17.24 29.98 38.329 30.016 21.09-.031 38.305-13.338 38.335-30.016-.03-16.674-17.249-29.979-38.335-30.01-21.089.035-38.308 13.336-38.334 30.01m20.019 0c.021-8.482 8.14-15.479 18.315-15.479 10.171 0 18.297 6.996 18.314 15.479-.021 8.492-8.144 15.488-18.314 15.488-10.175 0-18.293-7-18.315-15.488"/></svg>