<svg xmlns="http://www.w3.org/2000/svg" xml:space="preserve" width="1418.054px" height="200px" x="0px" y="0px" viewBox="0 0 1418.054 200"><path fill="#FFF" d="M1359.164 178.462c-15.307 0-27.598-10.479-27.609-23.22.012-12.759 12.303-23.217 27.613-23.217 15.352 0 27.652 10.461 27.713 23.217-.057 12.74-12.361 23.22-27.713 23.22m-.001-67.989c-30.883.035-56.105 19.908-56.15 44.77.045 24.814 25.268 44.695 56.15 44.758 30.947-.063 56.184-19.901 56.209-44.758-.025-24.858-25.257-44.731-56.209-44.77m32.782-106.404v36.616h-12.846V4.069h-26.123v98.132h14.904c7.096-.021 11.215-4.827 11.215-11.111V63.941h12.85v38.26h14.871c7.094-.021 11.201-4.827 11.234-11.111V4.069zm-95.844 87.105c-12.393 0-20.645-9.271-20.686-20.903.041-11.647 8.293-20.938 20.686-20.953 12.338.014 20.619 9.306 20.68 20.953-.061 11.633-8.342 20.903-20.68 20.903m44.25-20.49c0-12.281-5.625-23.272-15.236-30.528h17.227V20.84h-31.627V4.069h-29.453V20.84h-31.824v19.32h17.637c-9.629 7.255-15.246 18.243-15.246 30.524.049 21.903 19.406 39.554 44.273 39.568 24.406-.014 44.25-17.665 44.25-39.571M966.5 87.585l.455-.267v-19.88l-1.545.918c-6.66 4.098-16.479 5.545-29.162 5.545h-44.275c-2.154 0-3.875-1.658-3.891-3.69V10.417h-31.453v65.746c0 10.546 6.818 19.313 24.191 19.313h51.391c14.072-.001 24.925-2.255 34.289-7.891m-50.647 52.884h66.541v30.451c0 2.053-1.77 3.662-3.912 3.662H919.74c-2.143 0-3.891-1.612-3.891-3.662zM886.47 176.85c.035 10.574 6.799 19.313 24.227 19.313h76.65c17.383 0 24.172-8.738 24.172-19.313v-57.685H886.47zM754.099 11.398l.031-.981h-97.964v21.271h65.683c-5.66 26.673-36.22 48.6-69.416 57.201l-.946.27 5.152 18.226.942-.186c49.548-10.059 94.737-38.779 96.518-95.801m387.412 9.849c16.086.056 28.91 10.441 28.941 23-.035 12.583-12.855 22.993-28.941 22.993-16.143 0-29.002-10.41-29.002-22.993 0-12.559 12.86-22.944 29.002-23m0 67.313c31.395-.081 57.129-19.669 57.164-44.313-.035-24.57-25.77-44.205-57.166-44.247-31.492.042-57.178 19.68-57.236 44.247.059 24.64 25.744 44.232 57.236 44.313m-386.633 89.383c-15.18 0-27.338-10.451-27.355-23.154.018-12.747 12.176-23.178 27.359-23.178 15.113 0 27.223 10.431 27.275 23.178-.053 12.703-12.162 23.154-27.275 23.154m0-68.364c-30.949.024-56.171 20.108-56.227 45.21.056 25.089 25.278 45.145 56.227 45.211 30.844-.063 56.111-20.122 56.111-45.215 0-25.098-25.266-45.182-56.115-45.207m33.086-83.305h-30.195v20.974h30.199v18.17h-30.199v20.809h30.199v21.135H803.9c7.357 0 11.611-4.991 11.611-11.5V4.164h-27.549zm320.375 144.639v-31.898h-30.266v37.84c0 10.57 6.818 19.313 24.191 19.313h112.191v-21.592H1112.23c-2.172-.001-3.893-1.651-3.893-3.663m-59.879-46.956h186.016v-21.591h-186.016zM1011.517 4.164h-27.549v99.948h15.895c7.357-.035 11.658-5.001 11.658-11.532V61.989h25.621V37.416h-25.621z"/><path fill="#D81920" d="M568.753 43.644h15.607a1.85 1.85 0 0 0 1.844-1.851V12.386a1.84 1.84 0 0 0-1.844-1.833h-21.899c-25.341 0-38.761 8.097-46.44 25.306l-47.653 116.694c-2.874 6.975-7.045 10.287-15.247 10.287V12.383c0-1.009-.841-1.83-1.857-1.83h-34.99a1.834 1.834 0 0 0-1.854 1.812v180.338c0 1.759 1.454 3.245 3.242 3.245h39.284c25.327 0 36.907-8.106 44.563-25.316l47.029-115.24c3.755-8.166 9.191-11.748 20.215-11.748M100.129 163.643h-59.21v-43.479h59.209c15.937 0 26.732 9.733 26.732 21.73.001 12.016-10.794 21.749-26.731 21.749m40.766-60.376c14.076-5.854 25.685-18.979 25.685-40.717 0-32.351-27.759-51.996-61.25-51.996H1.822a1.823 1.823 0 0 0-1.823 1.823V41.79c0 1.017.813 1.857 1.823 1.857h96.316c15.544 0 26.052 9.506 26.052 21.191 0 11.692-10.508 21.184-26.052 21.184H40.919V64.186a1.836 1.836 0 0 0-1.819-1.854H1.822a1.83 1.83 0 0 0-1.823 1.836V194.11a1.823 1.823 0 0 0 1.812 1.834H103.82c38.13 0 65.43-17.777 65.43-54.047 0-17.811-10.515-32.549-28.355-38.63m464.12 90.536-60.04-76.748c-.168-.228-.42-.199-.515.043l-16.147 39.535c-.108.238-.108.508.053.719l26.245 35.165c1.857 2.499 3.95 3.429 7.094 3.429h42.277c1.251 0 1.749-1.203 1.033-2.139M234.993 62.332h-35.057a1.833 1.833 0 0 0-1.847 1.819v129.96a1.83 1.83 0 0 0 1.847 1.837h35.057a1.85 1.85 0 0 0 1.833-1.837V64.186a1.854 1.854 0 0 0-1.833-1.854"/><path fill="#D81920" d="M379.141 10.553h-35.018a1.826 1.826 0 0 0-1.826 1.826v150.46c-8.226 0-12.366-3.314-15.254-10.287L279.369 35.859c-7.658-17.209-21.104-25.306-46.42-25.306h-33.01a1.83 1.83 0 0 0-1.847 1.812v29.428c0 1.017.813 1.851 1.847 1.851h26.673c11.058 0 16.474 3.579 20.27 11.746l47.015 115.243c7.676 17.21 19.253 25.316 44.58 25.316h39.256c1.777 0 3.249-1.485 3.249-3.245V12.379a1.83 1.83 0 0 0-1.837-1.822h-.003"/></svg>