<svg xmlns="http://www.w3.org/2000/svg" width="899.59357mm" height="200mm" viewBox="0 0 899.59357 200"><defs><linearGradient id="b" x1="0" x2="1" y1="0" y2="0" gradientTransform="scale(-28.04665 28.04665) rotate(80 -19.006 -1.701)" gradientUnits="userSpaceOnUse" spreadMethod="pad"><stop offset="0" style="stop-opacity:1;stop-color:#66cef5"/><stop offset="0.15" style="stop-opacity:1;stop-color:#66cef5"/><stop offset="0.4717347" style="stop-opacity:1;stop-color:#66cef5"/><stop offset="1" style="stop-opacity:1;stop-color:#176fc1"/></linearGradient><linearGradient id="d" x1="0" x2="1" y1="0" y2="0" gradientTransform="scale(29.15122 -29.15122) rotate(-20 -41.516 -55.778)" gradientUnits="userSpaceOnUse" spreadMethod="pad"><stop offset="0" style="stop-opacity:1;stop-color:#66cef5"/><stop offset="0.15" style="stop-opacity:1;stop-color:#66cef5"/><stop offset="0.4717347" style="stop-opacity:1;stop-color:#66cef5"/><stop offset="1" style="stop-opacity:1;stop-color:#176fc1"/></linearGradient><linearGradient id="f" x1="0" x2="1" y1="0" y2="0" gradientTransform="scale(-27.9525 27.9525) rotate(-80 1.724 20.142)" gradientUnits="userSpaceOnUse" spreadMethod="pad"><stop offset="0" style="stop-opacity:1;stop-color:#66cef5"/><stop offset="0.15" style="stop-opacity:1;stop-color:#66cef5"/><stop offset="0.4717347" style="stop-opacity:1;stop-color:#66cef5"/><stop offset="1" style="stop-opacity:1;stop-color:#176fc1"/></linearGradient><linearGradient id="h" x1="0" x2="1" y1="0" y2="0" gradientTransform="scale(-32.2536 32.2536) rotate(80 -10.102 5.808)" gradientUnits="userSpaceOnUse" spreadMethod="pad"><stop offset="0" style="stop-opacity:1;stop-color:#66cef5"/><stop offset="0.15" style="stop-opacity:1;stop-color:#66cef5"/><stop offset="0.4717347" style="stop-opacity:1;stop-color:#66cef5"/><stop offset="1" style="stop-opacity:1;stop-color:#176fc1"/></linearGradient><linearGradient id="j" x1="0" x2="1" y1="0" y2="0" gradientTransform="scale(33.5239 -33.5239) rotate(-20 -41.62 -14.296)" gradientUnits="userSpaceOnUse" spreadMethod="pad"><stop offset="0" style="stop-opacity:1;stop-color:#66cef5"/><stop offset="0.15" style="stop-opacity:1;stop-color:#66cef5"/><stop offset="0.4717347" style="stop-opacity:1;stop-color:#66cef5"/><stop offset="1" style="stop-opacity:1;stop-color:#176fc1"/></linearGradient><linearGradient id="l" x1="0" x2="1" y1="0" y2="0" gradientTransform="scale(-32.14574 32.14574) rotate(-80 7.592 10.035)" gradientUnits="userSpaceOnUse" spreadMethod="pad"><stop offset="0" style="stop-opacity:1;stop-color:#66cef5"/><stop offset="0.15" style="stop-opacity:1;stop-color:#66cef5"/><stop offset="0.4717347" style="stop-opacity:1;stop-color:#66cef5"/><stop offset="1" style="stop-opacity:1;stop-color:#176fc1"/></linearGradient><clipPath id="a" clipPathUnits="userSpaceOnUse"><path d="M474.826 499.806c0-7.811 6.334-14.144 14.148-14.144 2.502 0 4.852.65 6.893 1.787v9.135a6.544 6.544 0 0 0-11.748 3.963c0 1.711.66 3.275 1.737 4.44a14.514 14.514 0 0 0-1.767 6.965c0 .387.016.777.046 1.156-5.43-1.976-9.309-7.184-9.309-13.302"/></clipPath><clipPath id="c" clipPathUnits="userSpaceOnUse"><path d="M484.089 511.952c0-2.523.639-4.893 1.767-6.965a6.538 6.538 0 0 0 6.916 1.754 7.054 7.054 0 0 0 5.892 10.937 7.056 7.056 0 0 0 6.407-4.104c1.051.25 2.15.382 3.277.382 1.701 0 3.331-.297 4.84-.848-.593 7.504-6.87 13.414-14.527 13.414-8.049 0-14.572-6.525-14.572-14.57"/></clipPath><clipPath id="e" clipPathUnits="userSpaceOnUse"><path d="M505.071 513.574a7.025 7.025 0 0 0 .644-2.95 7.02 7.02 0 0 0-1.162-3.879c.66.222 1.369.346 2.107.346a6.544 6.544 0 0 0 0-13.086 6.53 6.53 0 0 0-5.203 2.576v-9.132a14.113 14.113 0 0 1 6.891-1.787c7.814 0 14.15 6.333 14.15 14.144 0 7.817-6.336 14.15-14.15 14.15-1.127 0-2.226-.132-3.277-.382"/></clipPath><clipPath id="g" clipPathUnits="userSpaceOnUse"><path d="M70.222 492.091c0-8.983 7.284-16.267 16.27-16.267 2.876 0 5.582.749 7.926 2.056v10.506a7.525 7.525 0 0 0-13.509 4.557c0 1.969.759 3.766 1.998 5.105a16.7 16.7 0 0 0-2.032 8.012c0 .444.018.892.052 1.328-6.245-2.272-10.705-8.262-10.705-15.297"/></clipPath><clipPath id="i" clipPathUnits="userSpaceOnUse"><path d="M80.875 506.06a16.7 16.7 0 0 1 2.032-8.012 7.518 7.518 0 0 0 7.953 2.018 8.099 8.099 0 0 0-1.341 4.465 8.114 8.114 0 0 0 8.115 8.112 8.11 8.11 0 0 0 7.369-4.718 16.27 16.27 0 0 0 3.77.439c1.955 0 3.83-.344 5.565-.976-.681 8.631-7.899 15.426-16.705 15.426-9.256 0-16.758-7.502-16.758-16.754"/></clipPath><clipPath id="k" clipPathUnits="userSpaceOnUse"><path d="M105.003 507.925a8.089 8.089 0 0 0 .742-3.394 8.06 8.06 0 0 0-1.339-4.46 7.62 7.62 0 0 0 2.426.398 7.525 7.525 0 0 0 7.525-7.526 7.526 7.526 0 0 0-7.525-7.523 7.51 7.51 0 0 0-5.984 2.963V477.88a16.233 16.233 0 0 1 7.925-2.056c8.986 0 16.27 7.284 16.27 16.267 0 8.989-7.284 16.273-16.27 16.273a16.27 16.27 0 0 1-3.77-.439"/></clipPath></defs><g clip-path="url(#a)" transform="matrix(2.13135 0 0 -2.13135 -606.757 989.307)"><path d="M474.826 499.806c0-7.811 6.334-14.144 14.148-14.144 2.502 0 4.852.65 6.893 1.787v9.135a6.544 6.544 0 0 0-11.748 3.963c0 1.711.66 3.275 1.737 4.44a14.514 14.514 0 0 0-1.767 6.965c0 .387.016.777.046 1.156-5.43-1.976-9.309-7.184-9.309-13.302" style="fill:url(#b);stroke:none"/></g><g clip-path="url(#c)" transform="matrix(2.13135 0 0 -2.13135 -606.757 989.307)"><path d="M484.089 511.952c0-2.523.639-4.893 1.767-6.965a6.538 6.538 0 0 0 6.916 1.754 7.054 7.054 0 0 0 5.892 10.937 7.056 7.056 0 0 0 6.407-4.104c1.051.25 2.15.382 3.277.382 1.701 0 3.331-.297 4.84-.848-.593 7.504-6.87 13.414-14.527 13.414-8.049 0-14.572-6.525-14.572-14.57" style="fill:url(#d);stroke:none"/></g><g clip-path="url(#e)" transform="matrix(2.13135 0 0 -2.13135 -606.757 989.307)"><path d="M505.071 513.574a7.025 7.025 0 0 0 .644-2.95 7.02 7.02 0 0 0-1.162-3.879c.66.222 1.369.346 2.107.346a6.544 6.544 0 0 0 0-13.086 6.53 6.53 0 0 0-5.203 2.576v-9.132a14.113 14.113 0 0 1 6.891-1.787c7.814 0 14.15 6.333 14.15 14.144 0 7.817-6.336 14.15-14.15 14.15-1.127 0-2.226-.132-3.277-.382" style="fill:url(#f);stroke:none"/></g><path d="M0 0h-1.422v5.625h-2.545v-17.367h2.545v9.867H0v-9.867h2.546V5.625H0Z" style="fill:#1b3567;fill-opacity:1;fill-rule:nonzero;stroke:none" transform="matrix(2.13135 0 0 -2.13135 633.042 -90.409)"/><path d="M0 0v4.539h-2.683V0c0-3.217-1.144-4.974-3.493-5.822v-1.875c2.191.493 3.987 1.559 4.834 3.256.849-1.697 2.644-2.763 4.834-3.256v1.875C1.145-4.974 0-3.217 0 0" style="fill:#1b3567;fill-opacity:1;fill-rule:nonzero;stroke:none" transform="matrix(2.13135 0 0 -2.13135 615.67 -91.46)"/><path d="M0 0h-2.663v-17.367H0V-7.5h2.762v1.875H0Z" style="fill:#1b3567;fill-opacity:1;fill-rule:nonzero;stroke:none" transform="matrix(2.13135 0 0 -2.13135 675.372 -102.398)"/><path d="M551.667-25.114h-8.413V-42.78h8.413zm3.785-21.452h-17.878v21.874a3.376 3.376 0 0 0 3.363 3.364h16.405v-23.345a1.887 1.887 0 0 0-1.89-1.893" style="fill:#1b3567;fill-opacity:1;fill-rule:nonzero;stroke:none;stroke-width:2.13135" transform="translate(106.253 -54.15)"/><path d="M0 0c0-.968-1.422-1.776-3.554-1.776-2.131 0-3.55.808-3.55 1.776 0 .966 1.419 1.776 3.55 1.776C-1.422 1.776 0 .966 0 0m-9.867 0c0-2.093 2.506-3.553 6.313-3.553 3.81 0 6.316 1.46 6.316 3.553 0 2.092-2.506 3.552-6.316 3.552-3.807 0-6.313-1.46-6.313-3.552" style="fill:#1b3567;fill-opacity:1;fill-rule:nonzero;stroke:none" transform="matrix(2.13135 0 0 -2.13135 708.072 -95.457)"/><path d="M575.742-28.268h37.01v-3.785h-37.01z" style="fill:#1b3567;fill-opacity:1;fill-rule:nonzero;stroke:none;stroke-width:2.13135" transform="translate(106.253 -54.15)"/><path d="M0 0v-2.823c0-.868.709-1.578 1.578-1.578h12.037v1.657H2.762v1.145h10.656v3.414a.886.886 0 0 1-.888.889H0V1.046h10.654V0Z" style="fill:#1b3567;fill-opacity:1;fill-rule:nonzero;stroke:none" transform="matrix(2.13135 0 0 -2.13135 686.203 -74.763)"/><path d="M0 0v2.862a.886.886 0 0 1-.889.888h-12.529V1.974h10.753V0c0-1.184-.197-1.993-.591-2.565h-12.136v-1.776H1.972v1.776H-.691C-.297-1.993 0-1.184 0 0" style="fill:#1b3567;fill-opacity:1;fill-rule:nonzero;stroke:none" transform="matrix(2.13135 0 0 -2.13135 754.23 -93.143)"/><path d="M625.053-22.59h17.243v7.573h-17.243zm22.923 11.358v-13.25c0-1.051-.842-1.893-1.895-1.893h-26.703v11.778a3.372 3.372 0 0 0 3.36 3.365z" style="fill:#1b3567;fill-opacity:1;fill-rule:nonzero;stroke:none;stroke-width:2.13135" transform="translate(106.253 -54.15)"/><path d="M0 0h2.564c.475 1.026.79 2.368.79 4.144v5.625a.885.885 0 0 1-.888.888h-12.53V8.88H.69V4.144C.69 2.368.434 1.026 0 0" style="fill:#1b3567;fill-opacity:1;fill-rule:nonzero;stroke:none" transform="matrix(2.13135 0 0 -2.13135 785.631 -77.58)"/><path d="M0 0h-2.684v-6.118h-6.255v-1.776H8.427v1.776H0Z" style="fill:#1b3567;fill-opacity:1;fill-rule:nonzero;stroke:none" transform="matrix(2.13135 0 0 -2.13135 779.027 -86.412)"/><path d="M0 0c1.204-1.776 3.987-2.487 6.906-2.605v1.776c-2.82.134-4.8 1.027-5.326 2.763h5.129V3.71H-6.709V1.934h5.13C-2.104.198-4.083-.695-6.906-.829v-1.776C-3.985-2.487-1.203-1.776 0 0" style="fill:#1b3567;fill-opacity:1;fill-rule:nonzero;stroke:none" transform="matrix(2.13135 0 0 -2.13135 817.031 -93.227)"/><path d="M0 0c0-1.204-1.4-2.073-3.552-2.073-2.149 0-3.552.869-3.552 2.073s1.403 2.072 3.552 2.072C-1.4 2.072 0 1.204 0 0m-12.232 4.835h7.339V3.776C-7.937 3.437-9.865 1.939-9.865 0c0-2.21 2.506-3.849 6.313-3.849C.258-3.849 2.764-2.21 2.764 0c0 1.939-1.929 3.437-4.974 3.776v1.059h7.341v1.776h-17.363z" style="fill:#1b3567;fill-opacity:1;fill-rule:nonzero;stroke:none" transform="matrix(2.13135 0 0 -2.13135 824.601 -72.322)"/><path d="M0 0h2.764v1.875H0v3.454h-2.663v-9.67H0Z" style="fill:#1b3567;fill-opacity:1;fill-rule:nonzero;stroke:none" transform="matrix(2.13135 0 0 -2.13135 869.882 -91.04)"/><path d="M0 0c1.46 0 2.368-1.026 2.368-2.368 0-1.341-.908-2.368-2.368-2.368s-2.367 1.027-2.367 2.368C-2.367-1.026-1.46 0 0 0m0-6.512c3.118 0 5.131 1.737 5.131 4.144C5.131.04 3.118 1.777 0 1.777c-3.118 0-5.131-1.737-5.131-4.145 0-2.407 2.013-4.144 5.131-4.144" style="fill:#1b3567;fill-opacity:1;fill-rule:nonzero;stroke:none" transform="matrix(2.13135 0 0 -2.13135 849.276 -97.979)"/><path d="M0 0c0-1.303-1.321-2.27-3.354-2.27-2.033 0-3.355.967-3.355 2.27 0 1.302 1.322 2.27 3.355 2.27S0 1.302 0 0m-9.471 0c0-2.329 2.427-4.046 6.117-4.046C.335-4.046 2.762-2.329 2.762 0S.335 4.045-3.354 4.045c-3.69 0-6.117-1.716-6.117-4.045" style="fill:#1b3567;fill-opacity:1;fill-rule:nonzero;stroke:none" transform="matrix(2.13135 0 0 -2.13135 863.996 -72.743)"/><path d="M0 0c0 1.362.829 2.368 2.17 2.368 1.342 0 2.171-1.006 2.171-2.368 0-1.361-.829-2.368-2.171-2.368C.829-2.368 0-1.361 0 0m8.979 6.119V-5.843c-.937-.3-2.1-.472-3.552-.472H3.512v2.299C5.722-3.574 7.103-2.024 7.103 0c0 1.325-.591 2.327-1.619 2.96h2.409v1.777H3.512v1.579H.829V4.737h-4.381V2.96h2.408C-2.171 2.327-2.763 1.325-2.763 0c0-2.024 1.382-3.574 3.592-4.016v-2.299h-4.578v-1.776h9.176c1.452 0 2.615.211 3.552.547v-3.705h2.663V6.119Z" style="fill:#1b3567;fill-opacity:1;fill-rule:nonzero;stroke:none" transform="matrix(2.13135 0 0 -2.13135 886.637 -89.356)"/><path d="M0 0h3.884v-2.183C2.709-3.274 1.164-3.78-.379-3.78c-2.992 0-5.322 1.907-5.322 5.851 0 3.059 1.467 5.845 5.333 5.845 1.946 0 3.581-.785 4.145-2.939h2.842C6.312 8.14 3.79 10.585-.198 10.585c-5.166 0-8.567-3.197-8.567-8.641 0-5.525 3.787-8.492 8.564-8.492 2.231 0 5.006.974 6.975 3.213v6H0Z" style="fill:#1b3567;fill-opacity:1;fill-rule:nonzero;stroke:none" transform="matrix(2.13135 0 0 -2.13135 580.503 -79.585)"/><path d="m0 0-4.536 12.335h-3.75V-4.242h2.86V7.004l4.085-11.048h2.685L5.429 7.004V-4.242H8.29v16.577H4.54Z" style="fill:#1b3567;fill-opacity:1;fill-rule:nonzero;stroke:none" transform="matrix(2.13135 0 0 -2.13135 540.437 -75.264)"/><path d="M0 0h-1.635v6.468h-2.926v-19.972h2.926v11.348H0v-11.348h2.928V6.468H0Z" style="fill:#1b3567;fill-opacity:1;fill-rule:nonzero;stroke:none" transform="matrix(4.25622 0 0 -4.25622 523.099 97.57)"/><path d="M0 0v5.221h-3.086V0c0-3.7-1.316-5.719-4.016-6.694v-2.157c2.519.568 4.583 1.793 5.559 3.745.976-1.952 3.041-3.177 5.561-3.745v2.157C1.316-5.719 0-3.7 0 0" style="fill:#1b3567;fill-opacity:1;fill-rule:nonzero;stroke:none" transform="matrix(4.25622 0 0 -4.25622 483.207 95.158)"/><path d="M0 0h-3.064v-19.972H0v11.347h3.177v2.157H0Z" style="fill:#1b3567;fill-opacity:1;fill-rule:nonzero;stroke:none" transform="matrix(4.25622 0 0 -4.25622 620.31 70.04)"/><path d="M89.807-27.805h-9.674V-48.12h9.674zm4.354-24.67H73.606v25.154a3.88 3.88 0 0 0 3.867 3.87h18.862v-26.846a2.168 2.168 0 0 0-2.174-2.178" style="fill:#1b3567;fill-opacity:1;fill-rule:nonzero;stroke:none;stroke-width:2.13135" transform="translate(400.885 178.692) scale(1.99696)"/><path d="M0 0c0-1.112-1.634-2.042-4.085-2.042S-8.169-1.112-8.169 0c0 1.112 1.633 2.042 4.084 2.042C-1.634 2.042 0 1.112 0 0m-11.346 0c0-2.406 2.881-4.085 7.261-4.085 4.38 0 7.262 1.679 7.262 4.085 0 2.405-2.882 4.085-7.262 4.085-4.38 0-7.261-1.68-7.261-4.085" style="fill:#1b3567;fill-opacity:1;fill-rule:nonzero;stroke:none" transform="matrix(4.25622 0 0 -4.25622 695.403 85.978)"/><path d="M117.497-31.432h42.56v-4.353h-42.56z" style="fill:#1b3567;fill-opacity:1;fill-rule:nonzero;stroke:none;stroke-width:2.13135" transform="translate(400.885 178.692) scale(1.99696)"/><path d="M0 0v-3.245c0-1 .817-1.816 1.815-1.816h13.843v1.907H3.176v1.316H15.43v3.925c0 .568-.453 1.023-1.02 1.023H0V1.203h12.254V0Z" style="fill:#1b3567;fill-opacity:1;fill-rule:nonzero;stroke:none" transform="matrix(4.25622 0 0 -4.25622 645.18 133.506)"/><path d="M0 0v3.291c0 .567-.455 1.021-1.022 1.021h-14.41V2.27h12.367V0c0-1.362-.227-2.292-.68-2.951h-13.956v-2.042h19.97v2.042H-.794C-.341-2.292 0-1.362 0 0" style="fill:#1b3567;fill-opacity:1;fill-rule:nonzero;stroke:none" transform="matrix(4.25622 0 0 -4.25622 801.405 91.292)"/><path d="M174.204-24.902h19.828v8.707h-19.828zm26.36 13.061v-15.235a2.17 2.17 0 0 0-2.178-2.18h-30.71v13.544c0 2.132 1.739 3.871 3.868 3.871z" style="fill:#1b3567;fill-opacity:1;fill-rule:nonzero;stroke:none;stroke-width:2.13135" transform="translate(400.885 178.692) scale(1.99696)"/><path d="M0 0h2.949c.545 1.18.908 2.724.908 4.766v6.468c0 .567-.453 1.021-1.02 1.021h-14.41v-2.043H.794V4.766C.794 2.724.5 1.18 0 0" style="fill:#1b3567;fill-opacity:1;fill-rule:nonzero;stroke:none" transform="matrix(4.25622 0 0 -4.25622 873.518 127.032)"/><path d="M0 0h-3.086v-7.036h-7.193v-2.043H9.689v2.043H0Z" style="fill:#1b3567;fill-opacity:1;fill-rule:nonzero;stroke:none" transform="matrix(4.25622 0 0 -4.25622 858.355 106.748)"/><path d="M0 0h4.466v-2.51C3.114-3.765 1.338-4.347-.435-4.347c-3.443 0-6.122 2.193-6.122 6.729 0 3.518 1.687 6.721 6.132 6.721 2.239 0 4.119-.902 4.768-3.379h3.27c-.354 3.637-3.255 6.447-7.842 6.447-5.941 0-9.851-3.674-9.851-9.935 0-6.355 4.354-9.767 9.848-9.767 2.566 0 5.756 1.122 8.021 3.696v6.9H0Z" style="fill:#1b3567;fill-opacity:1;fill-rule:nonzero;stroke:none" transform="matrix(4.25622 0 0 -4.25622 402.446 122.428)"/><path d="m0 0-5.219 14.186H-9.53V-4.879h3.288V8.055l4.699-12.706h3.086L6.242 8.055V-4.879h3.291v19.065H5.22Z" style="fill:#1b3567;fill-opacity:1;fill-rule:nonzero;stroke:none" transform="matrix(4.25622 0 0 -4.25622 310.433 132.35)"/><g clip-path="url(#g)" transform="matrix(4.25622 0 0 -4.25622 -298.88 2225.214)"><path d="M70.222 492.091c0-8.983 7.284-16.267 16.27-16.267 2.876 0 5.582.749 7.926 2.056v10.506a7.525 7.525 0 0 0-13.509 4.557c0 1.969.759 3.766 1.998 5.105a16.7 16.7 0 0 0-2.032 8.012c0 .444.018.892.052 1.328-6.245-2.272-10.705-8.262-10.705-15.297" style="fill:url(#h);stroke:none"/></g><g clip-path="url(#i)" transform="matrix(4.25622 0 0 -4.25622 -298.88 2225.214)"><path d="M80.875 506.06a16.7 16.7 0 0 1 2.032-8.012 7.518 7.518 0 0 0 7.953 2.018 8.099 8.099 0 0 0-1.341 4.465 8.114 8.114 0 0 0 8.115 8.112 8.11 8.11 0 0 0 7.369-4.718 16.27 16.27 0 0 0 3.77.439c1.955 0 3.83-.344 5.565-.976-.681 8.631-7.899 15.426-16.705 15.426-9.256 0-16.758-7.502-16.758-16.754" style="fill:url(#j);stroke:none"/></g><g clip-path="url(#k)" transform="matrix(4.25622 0 0 -4.25622 -298.88 2225.214)"><path d="M105.003 507.925a8.089 8.089 0 0 0 .742-3.394 8.06 8.06 0 0 0-1.339-4.46 7.62 7.62 0 0 0 2.426.398 7.525 7.525 0 0 0 7.525-7.526 7.526 7.526 0 0 0-7.525-7.523 7.51 7.51 0 0 0-5.984 2.963V477.88a16.233 16.233 0 0 1 7.925-2.056c8.986 0 16.27 7.284 16.27 16.267 0 8.989-7.284 16.273-16.27 16.273a16.27 16.27 0 0 1-3.77-.439" style="fill:url(#l);stroke:none"/></g></svg>