<svg xmlns="http://www.w3.org/2000/svg" xml:space="preserve" width="741.083px" height="296.486px" x="0px" y="0px" viewBox="0 0 741.083 296.486"><path fill="#FFF" d="M291.955 174.557c6.495 0 12.55-1.761 17.281-5.833v9.136c-5.282 3.634-11.558 5.177-18.162 5.177-16.622 0-28.181-11.562-28.181-28.185 0-16.514 11.888-28.073 28.4-28.073 6.495 0 12.55 1.872 17.395 5.505v10.02c-4.294-4.624-10.238-7.047-16.844-7.047-11.559 0-19.707 8.038-19.707 19.596s8.259 19.704 19.818 19.704m36.107 7.485h-8.917v-71.477l8.917 5.513v20.938c4.073-6.273 10.568-10.239 18.824-10.239 13.652 0 20.917 10.021 20.917 23.341v31.924h-9.026V151.66c0-10.571-4.624-16.184-14.092-16.184-10.017 0-16.623 8.586-16.623 19.375zm95.114-9.245c-4.514 6.384-11.448 10.238-19.926 10.238-15.854 0-27.189-11.78-27.189-27.853 0-16.404 11.337-28.403 27.189-28.403 8.478 0 15.412 3.965 19.926 10.459v-9.468h9.027v54.272h-9.027zm-37.868-17.725c0 11.229 7.813 19.485 18.825 19.485 11.119 0 19.043-8.256 19.043-19.485 0-11.447-7.924-19.814-19.043-19.814-11.011-.001-18.825 8.366-18.825 19.814m69.683 26.97h-8.918V127.77h8.918v11.56c4.291-8.038 11.229-12.552 19.813-12.552v10.239c-10.785-1.54-19.813 5.726-19.813 19.155zm111.187-23.668h-42.826c1.32 9.797 9.029 16.292 19.814 16.292 6.939 0 13.652-1.979 19.379-6.056v8.588c-5.836 3.963-12.439 5.835-19.379 5.835-17.063 0-29.279-11.009-29.279-27.632 0-16.294 10.348-28.622 26.75-28.622 15.631 0 25.869 11.56 25.869 27.08 0 1.544-.111 3.083-.328 4.515m-42.715-7.265h33.578c-.885-9.247-6.717-16.071-16.293-16.071-9.91-.001-15.853 6.934-17.285 16.071m61.758 30.933h-8.918V127.77h8.918v11.56c4.291-8.038 11.229-12.552 19.813-12.552v10.239c-10.785-1.54-19.813 5.726-19.813 19.155zm72.768-23.668h-42.826c1.322 9.797 9.029 16.292 19.816 16.292 6.936 0 13.648-1.979 19.377-6.056v8.588c-5.836 3.963-12.441 5.835-19.377 5.835-17.064 0-29.281-11.009-29.281-27.632 0-16.294 10.346-28.622 26.75-28.622 15.631 0 25.869 11.56 25.869 27.08 0 1.544-.109 3.083-.328 4.515m-42.715-7.265h33.576c-.883-9.247-6.717-16.071-16.293-16.071-9.908-.001-15.851 6.934-17.283 16.071m96.242 21.613c-4.402 6.495-11.449 10.46-19.926 10.46-15.854 0-27.191-11.78-27.191-27.852 0-16.404 11.338-28.403 27.191-28.403 8.477 0 15.523 4.072 19.926 10.678v-27.022l9.027 5.512v65.945h-9.027zm-37.869-17.503c0 11.229 7.814 19.485 18.824 19.485 11.119 0 19.043-8.257 19.043-19.485 0-11.448-7.924-19.815-19.043-19.815-11.008 0-18.824 8.367-18.824 19.815m-183.26 8.783c0 7.597 4.625 10.567 10.461 10.567 4.402 0 8.805-1.21 12.658-3.963v8.697c-3.744 2.752-8.918 3.854-13.43 3.854-11.561 0-18.605-5.176-18.605-19.818v-52.785l8.916 5.512z"/><path fill="#FFF" d="M504.801 127.062a6.88 6.88 0 0 0-7.486-.063c-4.254 2.703-4.26 8.908-.012 11.618l.191.12a6.89 6.89 0 0 0 7.42-.01l8.869-5.688zM281.497 96.293c6.384 0 11.008-2.752 11.008-7.705 0-2.974-1.539-5.285-5.615-6.938l-12.879-5.172c-6.605-2.863-10.239-6.605-10.239-13.651 0-9.467 7.598-15.412 18.605-15.412 6.385 0 12.329 1.763 16.512 4.955v9.354c-4.953-4.402-11.008-6.932-16.401-6.932-5.725 0-9.798 2.641-9.798 7.043 0 3.303 1.539 5.285 5.833 6.936l12.883 5.174c6.932 2.974 10.127 7.157 10.127 12.99 0 10.35-8.367 16.733-20.147 16.733-7.157 0-13.652-1.981-18.383-5.503v-9.688c5.723 5.395 12.11 7.816 18.494 7.816m36.989-11.778c0 7.597 4.624 10.568 10.457 10.568 4.405 0 8.807-1.21 12.661-3.962v8.695c-3.743 2.752-8.918 3.854-13.431 3.854-11.559 0-18.605-5.175-18.605-19.818V36.535l8.918-5.519zm72.986 8.918c-4.513 6.384-11.448 10.238-19.927 10.238-15.854 0-27.189-11.78-27.189-27.853 0-16.403 11.337-28.402 27.189-28.402 8.479 0 15.414 3.961 19.927 10.459v-9.469h9.028v54.273h-9.028zm-37.869-17.725c0 11.229 7.816 19.484 18.825 19.484 11.119 0 19.044-8.256 19.044-19.484 0-11.448-7.925-19.815-19.044-19.815-11.01 0-18.825 8.366-18.825 19.815m69.683 26.97h-8.916V48.406h8.916v9.247c4.074-6.273 10.568-10.238 18.824-10.238 13.65 0 20.918 10.02 20.918 23.34v31.924H454V72.296c0-10.571-4.623-16.184-14.092-16.184-10.018 0-16.623 8.586-16.623 19.375zm95.115-9.468c-4.402 6.496-11.449 10.46-19.928 10.46-15.852 0-27.189-11.78-27.189-27.853 0-16.403 11.338-28.402 27.189-28.402 8.479 0 15.523 4.071 19.928 10.678V36.531l9.025-5.51v71.658h-9.025zm-37.869-17.502c0 11.229 7.813 19.484 18.826 19.484 11.117 0 19.043-8.256 19.043-19.484 0-11.448-7.926-19.815-19.043-19.815-11.012 0-18.826 8.366-18.826 19.815m203 17.502c-4.402 6.496-11.449 10.46-19.926 10.46-15.855 0-27.191-11.78-27.191-27.853 0-16.403 11.338-28.402 27.191-28.402 8.477 0 15.521 4.071 19.926 10.678V36.531l9.025-5.51v71.658h-9.025zm-37.869-17.502c0 11.229 7.816 19.484 18.826 19.484 11.119 0 19.043-8.256 19.043-19.484 0-11.448-7.924-19.815-19.043-19.815-11.01 0-18.826 8.366-18.826 19.815m-61.432 17.725c-4.514 6.384-11.447 10.238-19.926 10.238-15.854 0-27.189-11.78-27.189-27.853 0-16.403 11.338-28.402 27.189-28.402 8.479 0 15.412 3.961 19.926 10.459v-9.469h9.027v54.273h-9.027zm-37.867-17.725c0 11.229 7.813 19.484 18.826 19.484 11.117 0 19.041-8.256 19.041-19.484 0-11.448-7.924-19.815-19.041-19.815-11.012 0-18.826 8.366-18.826 19.815m69.683 26.97h-8.918V48.406h8.918v11.559c4.293-8.034 11.229-12.55 19.814-12.55v10.238c-10.787-1.54-19.814 5.726-19.814 19.155z"/><path fill="#FFF" d="M331.057 59.972a6.89 6.89 0 0 0 7.486.049c4.248-2.715 4.238-8.921-.019-11.619l-.189-.121a6.88 6.88 0 0 0-7.418.027l-8.856 5.709zm-39.733 176.359-12.893-5.181c-4.3-1.652-5.842-3.636-5.842-6.94 0-4.41 4.078-7.055 9.809-7.055 5.399 0 11.459 2.536 16.418 6.943v-9.369c-4.186-3.193-10.139-4.958-16.529-4.958-11.019 0-18.624 5.952-18.624 15.43 0 7.052 3.638 10.8 10.249 13.662l12.893 5.181c4.079 1.652 5.621 3.968 5.621 6.942 0 4.959-4.629 7.714-11.019 7.714-6.393 0-12.785-2.426-18.516-7.823v9.698c4.74 3.526 11.24 5.509 18.405 5.509 11.791 0 20.166-6.394 20.166-16.749 0-5.842-3.198-10.029-10.138-13.004m25.644 1.542c0-11.569 8.153-19.614 19.726-19.614 6.611 0 12.564 2.425 16.86 7.051v-10.026c-4.848-3.636-10.911-5.511-17.411-5.511-16.531 0-28.43 11.57-28.43 28.102 0 16.64 11.569 28.212 28.208 28.212 6.614 0 12.894-1.542 18.184-5.181v-9.146c-4.737 4.078-10.8 5.842-17.301 5.842-11.572-.003-19.836-8.159-19.836-19.729m191.728 11.804h-7.93v16.515h44.406v-6.708h-36.477zm-13.545-10.161h53.996v6.668h-53.996zm107.894-29.706v13.645h-6.352V209.81h-7.041v32.991h7.041v-13.145h6.352v14.538h6.838V209.81zm-17.546 2.988h-10.271v-5.04h-7.795v5.04h-10.27v5.633h28.336zm-145.975 21.426c3.445 2.665 7.422 4.02 11.813 4.02 4.439 0 8.426-1.364 11.852-4.058 3.447-2.709 5.195-6.282 5.195-10.619s-1.748-7.898-5.195-10.587c-3.426-2.668-7.414-4.021-11.852-4.021s-8.424 1.354-11.848 4.021c-3.449 2.688-5.199 6.25-5.199 10.587.002 4.383 1.761 7.97 5.234 10.657m4.932-16.62c1.996-1.626 4.311-2.45 6.883-2.45 2.57 0 4.887.812 6.883 2.409 1.977 1.583 2.979 3.549 2.979 5.842 0 2.3-1.006 4.312-2.982 5.975-1.996 1.681-4.311 2.531-6.879 2.531-2.566 0-4.883-.852-6.879-2.531-1.977-1.663-2.979-3.673-2.979-5.975-.001-2.24.997-4.195 2.974-5.801m61.652 14.228c3.908 2.4 9.307 3.615 16.039 3.615 6.691 0 12.09-1.238 16.045-3.687 4.002-2.474 6.031-5.706 6.031-9.605 0-3.806-2.029-6.991-6.031-9.469-3.957-2.443-9.354-3.687-16.045-3.687-6.732 0-12.133 1.264-16.047 3.757-3.959 2.521-5.965 5.685-5.965 9.397 0 3.994 2.01 7.251 5.973 9.679m5.723-14.516c2.85-1.366 6.322-2.061 10.322-2.061 4.094 0 7.564.707 10.316 2.096 2.67 1.351 4.025 2.989 4.025 4.88 0 1.788-1.277 3.393-3.795 4.765-2.59 1.413-6.139 2.131-10.549 2.131-4.408 0-7.98-.731-10.617-2.171-2.559-1.396-3.857-3.015-3.857-4.806 0-1.885 1.397-3.511 4.155-4.834m59.662 26.337c4.131 0 7.557-1.077 10.172-3.2 2.639-2.142 3.977-4.967 3.977-8.392 0-3.479-1.318-6.277-3.916-8.317-2.572-2.018-5.994-3.041-10.172-3.041-4.045 0-7.424 1.021-10.039 3.039-2.643 2.038-3.98 4.784-3.98 8.163 0 3.477 1.348 6.339 4.004 8.508 2.637 2.151 5.985 3.24 9.954 3.24m-5.539-15.556c1.531-1.051 3.418-1.583 5.611-1.583 2.346 0 4.258.529 5.68 1.574 1.4 1.032 2.082 2.323 2.082 3.938 0 1.629-.662 2.972-2.021 4.104-1.359 1.137-3.295 1.713-5.742 1.713-2.24 0-4.137-.578-5.639-1.724-1.484-1.133-2.209-2.469-2.209-4.093.001-1.612.732-2.898 2.238-3.929m36.677 20.274c-3.994-1.972-9.932-2.974-17.654-2.974-7.67 0-13.641.958-17.748 2.845-4.186 1.926-6.309 4.502-6.309 7.658 0 3.151 2.096 5.805 6.232 7.875 4.063 2.036 10.012 3.07 17.688 3.07 7.719 0 13.682-1.002 17.721-2.974 4.113-2.01 6.201-4.606 6.201-7.719 0-3.152-2.062-5.769-6.131-7.781m-6.847 11.332c-2.723.976-6.375 1.47-10.859 1.47-4.684 0-8.461-.494-11.229-1.47-2.643-.933-3.984-2.195-3.984-3.754 0-1.6 1.338-2.836 3.977-3.679 2.768-.882 6.523-1.326 11.162-1.326 4.592 0 8.283.444 10.98 1.326 2.564.84 3.867 2.102 3.867 3.751-.002 1.511-1.319 2.75-3.914 3.682m-119.881-45.304v22.693h7.791v-27.279h-.063zm-38.162 33.179h39.205v3.944h-39.205v14.689h45.891v-5.561h-39.27v-3.925h39.27V241.61h-45.891zm-50.94-14.622V218.3h9.113v-6.914h-25.972v6.914h8.999v14.656c-.234 16.663-12.173 29.132-12.288 29.236l-.168.151 5.583 4.502.121-.132c4.788-5.115 8.41-11.688 10.766-19.531h.051c2.355 7.845 5.978 14.416 10.766 19.531l.122.132 5.585-4.502-.17-.151c-.118-.105-12.277-12.573-12.508-29.236m29.185 33.247h7.452v-51.955l-7.452-4.422z"/><path fill="#FFF" d="M402.821 230.504h-8.031v7.47h8.031l.047 28.229h7.45v-51.908l-7.448-4.42z"/><path fill="#38D200" d="m154.652 281.747-115.288-75.06s-14.462-8.312-17.769-23.795c-4.651-21.749 10.679-40.388 10.679-40.388l149.627 97.447c11.539 7.521 14.691 22.909 7.272 34.518-7.622 11.929-23.284 14.556-34.521 7.278"/><path fill="#0473EA" d="M45.448 126.422s-17.659-10.664-17.659-35.327c0-24.58 17.653-35.11 17.653-35.11l63.027-41.25c11.554-7.512 27.003-4.232 34.512 7.317 7.511 11.551 4.234 27.004-7.321 34.513L82.54 91.154l90.511 58.949s16.292 9.336 19.501 25.09c4.481 21.982-10.649 40.096-10.649 40.096z"/><path fill="#38D200" d="M164.083 65.31c-5.917 0-10.133 1.866-14.241 4.541L119.078 89.89l30.765 20.038c4.15 2.675 8.503 4.544 14.241 4.544 13.575 0 24.58-11.008 24.58-24.582 0-13.573-11.006-24.583-24.581-24.58"/><path fill="#0473EA" d="M45.122 285.723c5.917 0 10.132-1.866 14.24-4.541l30.769-20.039-30.769-20.038c-4.15-2.672-8.502-4.544-14.24-4.544-13.575 0-24.58 11.007-24.58 24.582 0 13.572 11.005 24.583 24.58 24.58"/></svg>