<svg xmlns="http://www.w3.org/2000/svg" xml:space="preserve" width="829.687px" height="200px" x="0px" y="0px" viewBox="0 0 829.687 200"><path fill="#FFF" d="M199.966 99.993c0 55.225-44.784 100.005-99.959 100.005-55.247 0-100.009-44.78-100.009-100.005 0-55.233 44.762-99.996 100-99.996 55.184.001 99.968 44.763 99.968 99.996"/><path fill="none" d="M4.676 99.661c0 52.645 42.672 95.304 95.322 95.304 52.631 0 95.29-42.678 95.29-95.299 0-52.645-42.659-95.309-95.308-95.309-52.631 0-95.304 42.664-95.304 95.304"/><path fill="#007BC7" d="M31.854 166.295c17.305 17.689 41.439 28.67 68.144 28.67 26.691 0 50.812-10.98 68.11-28.663-16.354-6.027-40.796-9.862-68.124-9.862-27.305.009-51.756 3.834-68.13 9.855M100.371 36.355c43.508-.003 80.635 26.904 94.9 64.667.006-.452.017-.903.017-1.357 0-52.645-42.659-95.309-95.304-95.309C47.348 4.356 4.68 47.02 4.68 99.66c0 1.132.027 2.259.066 3.382 13.693-38.816 51.359-66.687 95.625-66.687"/><path fill="#007BC7" d="M100.353 37.201c43.654-.004 80.861 27.082 94.904 64.92.009-.365.009-.732.014-1.099-14.265-37.763-51.392-64.67-94.9-64.667-44.266 0-81.932 27.87-95.625 66.688q.016.481.037.961c13.499-38.815 51.215-66.803 95.57-66.803"/><path fill="#007DC8" d="M100.353 37.201c-44.355 0-82.071 27.988-95.57 66.803q.022.495.048.988c13.293-38.83 51.058-66.951 95.513-66.951 43.769 0 81.037 27.238 94.874 65.11.013-.344.031-.686.039-1.03-14.043-37.838-51.25-64.924-94.904-64.92"/><path fill="#007FCA" d="M100.344 38.041c-44.455 0-82.219 28.122-95.513 66.951q.029.472.06.943C17.99 67.122 55.792 38.89 100.331 38.89c43.888-.003 81.221 27.383 94.848 65.292q.023-.516.039-1.031c-13.837-37.872-51.105-65.11-94.874-65.11"/><path fill="#0080CB" d="M100.317 39.731c43.989 0 81.386 27.518 94.809 65.446a82 82 0 0 0 .053-.994c-13.627-37.909-50.96-65.296-94.848-65.292-44.538 0-82.341 28.232-95.439 67.045.02.312.036.625.059.936 12.9-38.801 50.741-67.141 95.366-67.141"/><path fill="#0082CC" d="M100.317 39.731c-44.625 0-82.466 28.34-95.366 67.14.022.296.051.59.075.885 12.716-38.75 50.592-67.176 95.282-67.176 44.102-.003 81.544 27.65 94.754 65.591q.034-.496.063-.994c-13.422-37.928-50.819-65.446-94.808-65.446"/><path fill="#0084CD" d="M100.294 41.43c44.203-.003 81.699 27.784 94.701 65.729.026-.328.045-.658.067-.987-13.21-37.94-50.653-65.594-94.754-65.591-44.69 0-82.566 28.425-95.282 67.176q.038.45.08.896C17.632 69.945 55.537 41.43 100.294 41.43"/><path fill="#0086CF" d="M100.294 41.43c-44.758 0-82.662 28.516-95.188 67.223.027.294.051.588.081.881C17.523 70.878 55.456 42.27 100.281 42.27c44.29 0 81.83 27.9 94.631 65.826.027-.313.059-.624.083-.938-13.001-37.944-50.498-65.732-94.701-65.728"/><path fill="#0088D0" d="M100.272 43.12c44.376-.004 81.958 28 94.559 65.901q.043-.462.082-.925C182.111 70.17 144.571 42.27 100.281 42.27c-44.825 0-82.758 28.608-95.094 67.263.03.288.066.573.099.86 12.15-38.589 50.101-67.273 94.986-67.273"/><path fill="#008AD2" d="M100.272 43.12c-44.885 0-82.836 28.684-94.986 67.274q.046.42.096.841C17.348 72.717 55.319 43.96 100.259 43.96c44.458 0 82.078 28.116 94.476 65.983q.05-.46.096-.923c-12.602-37.9-50.183-65.904-94.559-65.9"/><path fill="#008CD3" d="M100.245 44.809c44.533-.003 82.185 28.208 94.387 66.034q.053-.45.103-.899c-12.398-37.868-50.018-65.983-94.476-65.983-44.939 0-82.911 28.757-94.877 67.274q.049.413.101.825c11.785-38.431 49.775-67.251 94.762-67.251"/><path fill="#008FD4" d="M100.245 44.809c-44.987 0-82.978 28.82-94.763 67.25.035.271.076.539.113.809 11.608-38.339 49.609-67.219 94.636-67.219 44.612 0 82.298 28.313 94.299 66.083.038-.295.067-.593.102-.89-12.202-37.824-49.854-66.036-94.387-66.033"/><path fill="#0090D5" d="M100.223 46.49c44.679 0 82.385 28.396 94.189 66.105.039-.287.083-.573.119-.862-12-37.771-49.687-66.083-94.299-66.083-45.026 0-83.028 28.88-94.636 67.219q.055.407.113.81C17.132 75.431 55.142 46.49 100.223 46.49"/><path fill="#0092D7" d="M100.223 46.49c-45.081 0-83.09 28.941-94.514 67.188q.057.395.118.788C17.077 76.33 55.093 47.34 100.205 47.34c44.741-.003 82.477 28.47 94.088 66.108q.062-.426.119-.853c-11.805-37.709-49.51-66.105-94.189-66.105"/><path fill="#0094D8" d="M100.191 48.184c44.813-.003 82.569 28.562 93.977 66.125.044-.286.082-.574.124-.861-11.611-37.638-49.347-66.111-94.088-66.108-45.112 0-83.128 28.991-94.378 67.126q.062.38.125.759c11.08-38.015 49.102-67.041 94.24-67.041"/><path fill="#0096D9" d="M100.191 48.184c-45.139 0-83.16 29.026-94.239 67.041q.061.38.126.759c10.906-37.886 48.932-66.95 94.104-66.95 44.857-.007 82.627 28.617 93.853 66.08.043-.269.092-.536.133-.805-11.407-37.563-49.164-66.128-93.977-66.125"/><path fill="#0099DB" d="M100.164 49.879c44.917 0 82.704 28.693 93.733 66.064q.07-.414.138-.83c-11.226-37.463-48.996-66.087-93.853-66.08-45.172 0-83.198 29.063-94.104 66.95q.062.373.128.747c10.738-37.756 48.763-66.851 93.958-66.851"/><path fill="#009BDC" d="M100.164 49.879c-45.195 0-83.22 29.095-93.958 66.852q.071.377.145.753c10.56-37.625 48.58-66.76 93.809-66.76 44.962-.004 82.758 28.743 93.603 66.005q.069-.392.135-.785c-11.03-37.372-48.817-66.065-93.734-66.065"/><path fill="#009DDE" d="M100.142 51.568c44.999-.004 82.811 28.793 93.472 65.936.049-.259.102-.516.148-.775-10.845-37.262-48.641-66.009-93.603-66.005-45.229 0-83.249 29.135-93.809 66.76q.068.363.139.725c10.393-37.48 48.405-66.641 93.653-66.641"/><path fill="#00A0DF" d="M100.142 51.568c-45.248 0-83.259 29.161-93.652 66.64.047.24.09.481.14.72C16.854 81.6 54.862 52.414 100.128 52.414c45.052 0 82.865 28.854 93.333 65.883q.077-.396.152-.793c-10.661-37.142-48.472-65.94-93.471-65.936"/><path fill="#00A2E0" d="M100.115 53.25c45.099 0 82.92 28.92 93.191 65.83q.08-.39.156-.782c-10.468-37.029-48.282-65.883-93.333-65.883-45.267 0-83.274 29.187-93.499 66.514.047.231.101.459.15.689 10.064-37.17 48.059-66.368 93.335-66.368"/><path fill="#00A4E1" d="M100.115 53.25c-45.275 0-83.271 29.199-93.335 66.368l.15.69c9.904-36.998 47.892-66.205 93.176-66.205 45.13-.004 82.947 28.947 93.04 65.712.053-.246.109-.49.16-.736-10.271-36.91-48.092-65.829-93.191-65.829"/><path fill="#00A6E3" d="M100.092 54.948c45.158 0 82.979 28.983 92.894 65.603q.082-.367.16-.735c-10.093-36.766-47.91-65.716-93.04-65.712-45.284 0-83.272 29.207-93.176 66.205q.074.35.152.699c9.732-36.835 47.71-66.06 93.01-66.06"/><path fill="#00A8E4" d="M100.092 54.948c-45.301 0-83.278 29.225-93.01 66.059q.078.333.157.665c9.574-36.656 47.53-65.883 92.84-65.883 45.189 0 83.014 29.015 92.747 65.487.056-.241.106-.483.16-.725-9.915-36.62-47.736-65.603-92.894-65.603"/><path fill="#00ABE5" d="M100.07 56.633c45.219 0 83.03 29.048 92.58 65.363.058-.24.12-.479.176-.721-9.733-36.472-47.558-65.487-92.747-65.487-45.31 0-83.266 29.228-92.84 65.883q.082.34.165.677c9.411-36.475 47.354-65.715 92.666-65.715"/><path fill="#00ADE7" d="M100.07 56.633c-45.312 0-83.254 29.24-92.666 65.715q.079.328.16.655c9.253-36.289 47.172-65.521 92.493-65.521 45.241 0 83.05 29.074 92.418 65.233q.089-.358.175-.72c-9.55-36.314-47.361-65.362-92.58-65.362"/><path fill="#00B0E8" d="M100.043 58.328c45.271 0 83.075 29.104 92.259 65.094.06-.234.114-.471.172-.706-9.368-36.159-47.177-65.233-92.418-65.233-45.32 0-83.239 29.232-92.493 65.521q.082.33.166.659c9.089-36.101 46.992-65.335 92.314-65.335"/><path fill="#00B2E9" d="M100.043 58.328c-45.322 0-83.225 29.234-92.313 65.335.054.21.114.418.169.627 8.938-35.9 46.817-65.118 92.135-65.118 45.28 0 83.073 29.115 92.087 64.923q.092-.336.181-.674c-9.184-35.989-46.989-65.093-92.259-65.093"/><path fill="#11B5EB" d="M100.021 60.018c45.297 0 83.078 29.124 91.917 64.756q.094-.338.184-.678c-9.015-35.809-46.807-64.923-92.087-64.923-45.318 0-83.197 29.217-92.135 65.118l.167.617c8.789-35.69 46.647-64.89 91.954-64.89"/><path fill="#20B7EC" d="M100.021 60.018c-45.307 0-83.165 29.2-91.954 64.89.058.21.112.422.171.632 8.626-35.481 46.462-64.672 91.774-64.672 45.314 0 83.085 29.14 91.746 64.578q.092-.335.181-.671c-8.841-35.633-46.621-64.757-91.918-64.757"/><path fill="#25B9EE" d="M99.994 61.707c45.333 0 83.09 29.156 91.571 64.41q.097-.336.192-.673c-8.66-35.438-46.431-64.578-91.746-64.578-45.312 0-83.147 29.191-91.774 64.672q.09.313.18.625c8.469-35.274 46.274-64.456 91.577-64.456"/><path fill="#2EBCEF" d="M99.994 61.707c-45.303 0-83.108 29.182-91.576 64.457q.088.297.177.596c8.32-35.052 46.097-64.212 91.385-64.212 45.348 0 83.088 29.17 91.388 64.231q.1-.33.197-.662c-8.482-35.254-46.238-64.41-91.571-64.41"/><path fill="#36BEF0" d="M99.98 63.325c45.288 0 82.983 29.01 91.27 63.85l.118-.396c-8.3-35.061-46.04-64.231-91.388-64.231-45.288 0-83.065 29.16-91.385 64.212l.118.396c8.306-34.832 46.036-63.831 91.267-63.831"/><path fill="#46C0F0" d="M99.98 63.325c-45.231 0-82.961 28.999-91.268 63.83l.119.401c8.287-34.613 45.965-63.449 91.148-63.449 45.235 0 82.883 28.848 91.15 63.469q.06-.2.12-.401c-8.286-34.84-45.981-63.85-91.269-63.85"/><path fill="#51C2F1" d="M99.98 64.885c45.179 0 82.783 28.689 91.031 63.095.042-.134.079-.27.12-.403-8.267-34.621-45.915-63.469-91.15-63.469-45.183 0-82.862 28.836-91.148 63.449.042.137.08.274.123.41 8.26-34.4 45.894-63.082 91.024-63.082"/><path fill="#5AC4F1" d="M99.98 64.885c-45.13 0-82.764 28.683-91.026 63.082.039.127.082.252.121.378C17.333 94.17 54.914 65.658 99.98 65.658c45.115 0 82.668 28.52 90.907 62.706q.063-.193.124-.384c-8.248-34.406-45.852-63.095-91.031-63.095"/><path fill="#65C7F2" d="M99.98 66.435c45.054 0 82.555 28.351 90.783 62.31l.124-.382c-8.239-34.186-45.792-62.706-90.907-62.706-45.066 0-82.647 28.513-90.905 62.687l.124.382c8.246-33.951 45.775-62.291 90.781-62.291"/><path fill="#6DC9F3" d="M99.98 66.435c-45.006 0-82.535 28.34-90.781 62.292l.125.383C17.56 95.387 55.035 67.213 99.98 67.213c44.989 0 82.44 28.189 90.656 61.924l.127-.392c-8.228-33.959-45.729-62.31-90.783-62.31"/><path fill="#74CBF3" d="M99.98 67.99c44.924 0 82.324 28.008 90.534 61.521l.122-.375c-8.215-33.735-45.667-61.924-90.656-61.924-44.945 0-82.42 28.174-90.656 61.896l.124.383C17.675 95.99 55.096 67.99 99.98 67.99"/><path fill="#7DCDF4" d="M99.98 67.99c-44.884 0-82.305 28-90.532 61.502l.124.381c8.215-33.277 45.584-61.11 90.408-61.11 44.865 0 82.212 27.84 90.411 61.128l.124-.38C182.304 95.998 144.904 67.99 99.98 67.99"/><path fill="#84D0F4" d="M99.984 69.545c44.791 0 82.089 27.668 90.28 60.729q.063-.19.126-.383c-8.199-33.289-45.546-61.128-90.411-61.128-44.824 0-82.193 27.833-90.408 61.11q.062.192.125.384c8.208-33.05 45.523-60.712 90.288-60.712"/><path fill="#8BD2F5" d="M99.984 69.545c-44.766 0-82.081 27.662-90.288 60.711q.064.184.129.367c8.208-32.817 45.463-60.297 90.154-60.297 44.724 0 81.962 27.487 90.155 60.315.042-.123.088-.244.129-.368-8.19-33.059-45.488-60.728-90.279-60.728"/><path fill="#93D4F5" d="M99.984 71.096c44.653 0 81.836 27.314 90.021 59.915l.13-.368c-8.193-32.828-45.431-60.315-90.155-60.315-44.691 0-81.945 27.479-90.154 60.297l.127.362c8.206-32.585 45.407-59.891 90.031-59.891"/><path fill="#99D6F6" d="M99.984 71.096c-44.625 0-81.825 27.307-90.031 59.891l.129.366c8.205-32.352 45.347-59.475 89.901-59.475 44.579 0 81.706 27.135 89.892 59.5q.065-.183.129-.367c-8.184-32.601-45.367-59.915-90.02-59.915"/><path fill="#A0D9F7" d="M99.984 72.655c44.502 0 81.574 26.954 89.765 59.083l.127-.36c-8.186-32.366-45.313-59.5-89.892-59.5-44.555 0-81.696 27.124-89.901 59.475q.064.184.129.366c8.205-32.121 45.284-59.064 89.772-59.064"/><path fill="#A6DBF7" d="M99.984 72.655c-44.489 0-81.568 26.943-89.772 59.064q.063.183.128.365c8.204-31.888 45.224-58.656 89.64-58.656 44.437 0 81.453 26.78 89.638 58.682q.066-.185.131-.372c-8.191-32.129-45.263-59.083-89.765-59.083"/><path fill="#ABDDF8" d="M99.98 74.206c44.363 0 81.322 26.599 89.509 58.268q.064-.18.129-.363c-8.186-31.902-45.201-58.682-89.638-58.682-44.416 0-81.436 26.768-89.64 58.656.044.121.084.244.129.364 8.203-31.656 45.164-58.243 89.511-58.243"/><path fill="#B2E0F8" d="M99.98 74.206c-44.347 0-81.308 26.587-89.511 58.243q.065.173.131.346c8.217-31.416 45.118-57.811 89.384-57.811 44.281 0 81.175 26.411 89.371 57.843q.066-.176.134-.353c-8.187-31.669-45.146-58.268-89.509-58.268"/><path fill="#B7E2F9" d="M99.984 75.761c44.206 0 81.038 26.221 89.239 57.411l.132-.346c-8.196-31.433-45.09-57.843-89.371-57.843-44.266 0-81.167 26.395-89.384 57.811q.065.173.131.347c8.224-31.175 45.063-57.38 89.253-57.38"/><path fill="#BCE4F9" d="M99.984 75.761c-44.19 0-81.029 26.205-89.252 57.38l.136.357c8.227-30.942 45-56.964 89.116-56.964 44.121 0 80.895 26.033 89.106 56.989l.133-.351c-8.201-31.191-45.033-57.411-89.239-57.411"/><path fill="#C1E5FA" d="M99.984 77.311c44.042 0 80.751 25.85 88.972 56.564l.134-.353c-8.211-30.956-44.985-56.989-89.106-56.989-44.116 0-80.89 26.022-89.116 56.964l.131.344c8.239-30.694 44.946-56.53 88.985-56.53"/><path fill="#C7E8FA" d="M99.984 77.311c-44.04 0-80.747 25.836-88.985 56.531q.065.174.133.35c8.247-30.458 44.894-56.103 88.853-56.103 43.967 0 80.613 25.66 88.839 56.135l.133-.349c-8.221-30.714-44.93-56.564-88.973-56.564"/><path fill="#CCEAFB" d="M99.984 78.866c43.881 0 80.468 25.473 88.706 55.71q.067-.176.134-.353c-8.227-30.475-44.872-56.135-88.839-56.135-43.958 0-80.605 25.645-88.853 56.103q.067.179.136.358c8.252-30.222 44.833-55.683 88.716-55.683"/><path fill="#D0ECFB" d="M99.984 78.866c-43.884 0-80.464 25.461-88.716 55.684q.066.165.133.331c8.27-29.974 44.785-55.237 88.583-55.237 43.797 0 80.316 25.27 88.569 55.269l.137-.336c-8.237-30.238-44.824-55.711-88.706-55.711"/><path fill="#D6EEFB" d="M99.984 80.421c43.708 0 80.16 25.077 88.431 54.829q.069-.168.138-.338c-8.253-29.999-44.772-55.269-88.569-55.269s-80.313 25.264-88.583 55.237q.069.168.138.338c8.288-29.734 44.733-54.797 88.445-54.797"/><path fill="#DBF0FC" d="M99.984 80.421c-43.712 0-80.157 25.063-88.445 54.798l.137.336c8.305-29.485 44.681-54.356 88.308-54.356 43.619 0 80.006 24.885 88.293 54.387l.138-.336c-8.271-29.752-44.723-54.829-88.431-54.829"/><path fill="#E0F2FC" d="M99.984 81.972c43.53 0 79.851 24.686 88.156 53.951l.137-.337c-8.287-29.502-44.674-54.387-88.293-54.387-43.626 0-80.002 24.871-88.308 54.356l.134.328c8.325-29.238 44.635-53.911 88.174-53.911"/><path fill="#E5F4FD" d="M99.984 81.972c-43.54 0-79.849 24.673-88.173 53.911q.068.17.138.339c8.342-28.995 44.582-53.473 88.035-53.473 43.445 0 79.697 24.491 88.019 53.51l.137-.336c-8.305-29.266-44.626-53.951-88.156-53.951"/><path fill="#E9F6FD" d="M99.984 83.531c43.355 0 79.542 24.293 87.881 53.065q.069-.169.138-.338c-8.322-29.019-44.574-53.51-88.019-53.51-43.454 0-79.693 24.478-88.035 53.473q.07.172.14.343c8.355-28.75 44.525-53.033 87.895-53.033"/><path fill="#EEF8FE" d="M99.984 83.531c-43.37 0-79.54 24.283-87.895 53.033q.068.164.138.328c8.378-28.501 44.478-52.588 87.757-52.588 43.264 0 79.381 24.101 87.741 52.623l.14-.33c-8.339-28.773-44.525-53.066-87.881-53.066"/><path fill="#F2FAFE" d="M99.984 85.082c43.167 0 79.212 23.895 87.597 52.174q.072-.165.144-.329c-8.36-28.521-44.478-52.623-87.741-52.623-43.28 0-79.379 24.087-87.757 52.588q.074.168.146.335c8.399-28.26 44.421-52.145 87.611-52.145"/><path fill="#F7FBFE" d="M99.984 85.082c-43.19 0-79.212 23.885-87.611 52.146l.144.327c8.422-28.008 44.372-51.696 87.467-51.696 43.068 0 79.043 23.692 87.457 51.719l.141-.322c-8.386-28.279-44.431-52.174-87.598-52.174"/><path fill="#FCFEFF" d="M99.984 86.632c42.983 0 78.88 23.498 87.308 51.284l.148-.338c-8.414-28.027-44.388-51.719-87.457-51.719-43.095 0-79.045 23.688-87.467 51.696l.141.322c8.451-27.761 44.328-51.245 87.327-51.245"/><path fill="#FFF" d="M99.984 156.202c-27.369.01-51.877 3.868-68.273 9.946l.143.146c16.374-6.021 40.825-9.846 68.13-9.855 27.328 0 51.77 3.835 68.124 9.862l.142-.145c-16.377-6.086-40.875-9.954-68.266-9.954"/><path fill="#FFF" d="m31.569 166.004.142.145c16.396-6.078 40.904-9.937 68.273-9.946 27.391 0 51.889 3.868 68.266 9.955l.142-.146c-16.402-6.146-40.958-10.053-68.408-10.053-27.436.01-51.996 3.908-68.415 10.045"/><path fill="#FFF" d="M99.984 155.712c-27.499.014-52.114 3.951-68.557 10.146l.142.146c16.418-6.137 40.979-10.035 68.415-10.045 27.45 0 52.005 3.907 68.408 10.053q.071-.074.144-.147c-16.424-6.205-41.033-10.153-68.552-10.153"/><path fill="#FFF" d="M31.285 165.712q.07.075.143.146c16.443-6.195 41.058-10.133 68.557-10.146 27.519 0 52.127 3.948 68.551 10.152l.143-.146c-16.446-6.264-41.112-10.244-68.694-10.244-27.565.01-52.237 3.981-68.7 10.238"/><path fill="#FFF" d="M99.984 155.227c-27.627.01-52.356 4.023-68.844 10.339l.144.146c16.463-6.257 41.136-10.228 68.7-10.237 27.582 0 52.248 3.98 68.694 10.244q.071-.075.143-.146c-16.47-6.324-41.193-10.346-68.837-10.346"/><path fill="#FFF" d="M31 165.421q.07.072.141.145c16.488-6.315 41.216-10.329 68.844-10.339 27.644 0 52.366 4.022 68.836 10.346l.143-.146c-16.494-6.383-41.272-10.441-68.979-10.441-27.691.008-52.475 4.059-68.985 10.435"/><path fill="#FFF" d="M99.984 154.746c-27.754.007-52.589 4.095-69.121 10.528l.137.146c16.51-6.376 41.294-10.427 68.984-10.437 27.707 0 52.485 4.059 68.979 10.441l.136-.146c-16.516-6.436-41.348-10.532-69.115-10.532"/><path fill="#FFF" d="M30.727 165.127q.068.074.136.147c16.532-6.434 41.367-10.521 69.121-10.528 27.767 0 52.599 4.096 69.116 10.534l.136-.146c-16.538-6.498-41.421-10.631-69.251-10.631-27.816.01-52.704 4.134-69.258 10.624"/><path fill="#FFF" d="M99.984 154.26c-27.874.01-52.817 4.172-69.395 10.721q.069.075.137.146c16.554-6.49 41.442-10.614 69.257-10.624 27.831 0 52.713 4.133 69.251 10.631l.137-.147c-16.558-6.556-41.495-10.727-69.387-10.727"/><path fill="#FFF" d="m30.457 164.838.133.143c16.578-6.549 41.521-10.711 69.395-10.721 27.892 0 52.828 4.171 69.389 10.727l.134-.144c-16.583-6.615-41.57-10.825-69.523-10.825-27.937.006-52.93 4.21-69.528 10.82"/><path fill="#FFF" d="M99.984 153.775c-28 .007-53.048 4.243-69.668 10.911l.141.151c16.598-6.61 41.591-10.813 69.527-10.82 27.953 0 52.939 4.21 69.523 10.825l.141-.152c-16.607-6.67-41.653-10.915-69.664-10.915"/><path fill="#FFF" d="m30.183 164.543.133.144c16.62-6.668 41.668-10.904 69.668-10.911 28.011 0 53.056 4.244 69.664 10.915l.133-.143c-16.63-6.73-41.724-11.011-69.797-11.011-28.057.007-53.156 4.279-69.801 11.006"/><path fill="#FFF" d="M99.984 153.295c-28.12.006-53.272 4.315-69.939 11.101q.068.075.138.147c16.645-6.727 41.744-10.999 69.801-11.006 28.074 0 53.167 4.28 69.797 11.011l.138-.148c-16.652-6.789-41.803-11.105-69.935-11.105"/><path fill="#FFF" d="m29.911 164.251.134.145c16.667-6.785 41.819-11.095 69.939-11.101 28.132 0 53.282 4.316 69.935 11.104l.136-.146c-16.675-6.849-41.878-11.207-70.071-11.207-28.178.009-53.384 4.359-70.073 11.205"/><path fill="#FFF" d="M99.984 152.809c-28.241.004-53.497 4.394-70.209 11.297l.136.146c16.689-6.846 41.895-11.196 70.073-11.204 28.193 0 53.396 4.358 70.071 11.207l.134-.145c-16.698-6.907-41.954-11.301-70.205-11.301"/><path fill="#FFF" d="M29.638 163.958q.068.074.137.147c16.712-6.903 41.968-11.293 70.209-11.297 28.25 0 53.506 4.395 70.205 11.301l.136-.146c-16.718-6.966-42.027-11.397-70.345-11.397-28.3.003-53.609 4.43-70.342 11.392"/><path fill="#FFF" d="M99.98 152.328c-28.361.003-53.718 4.467-70.474 11.488q.066.071.132.142c16.733-6.962 42.042-11.389 70.342-11.392 28.318 0 53.627 4.432 70.345 11.397l.133-.144c-16.743-7.023-42.105-11.491-70.478-11.491"/><path fill="#FFF" d="m29.373 163.67.133.146c16.756-7.021 42.113-11.485 70.474-11.488 28.373 0 53.735 4.468 70.479 11.492l.134-.146c-16.763-7.085-42.176-11.594-70.608-11.594-28.423.008-53.835 4.509-70.612 11.59"/><path fill="#FFF" d="M99.984 151.843c-28.481.004-53.942 4.543-70.742 11.68q.065.074.13.147c16.777-7.081 42.188-11.582 70.611-11.59 28.432 0 53.845 4.509 70.608 11.594l.128-.145c-16.788-7.142-42.247-11.686-70.735-11.686"/><path fill="#FFF" d="m29.112 163.376.131.146c16.8-7.137 42.26-11.676 70.742-11.68 28.487 0 53.946 4.544 70.736 11.687q.065-.075.132-.149c-16.809-7.2-42.318-11.784-70.868-11.784-28.54.003-54.051 4.583-70.873 11.78"/><path fill="#FFF" d="M99.98 151.361c-28.595.004-54.154 4.615-70.996 11.87l.128.145c16.822-7.197 42.333-11.777 70.873-11.78 28.55 0 54.06 4.584 70.868 11.784l.128-.144c-16.834-7.259-42.397-11.875-71.001-11.875"/><path fill="#FFF" d="m28.854 163.085.13.146c16.842-7.255 42.401-11.866 70.996-11.87 28.604 0 54.167 4.615 71 11.875l.132-.149c-16.854-7.317-42.464-11.978-71.128-11.978-28.654.004-54.263 4.661-71.13 11.976"/><path fill="#FFF" d="M99.98 150.867c-28.711.003-54.369 4.693-71.257 12.07l.131.147c16.867-7.315 42.476-11.972 71.13-11.976 28.664 0 54.274 4.66 71.128 11.978l.131-.147c-16.876-7.376-42.537-12.072-71.263-12.072"/><path fill="#FFF" d="m28.596 162.794.127.144c16.889-7.377 42.546-12.067 71.257-12.07 28.726 0 54.387 4.695 71.264 12.072l.125-.141c-16.899-7.435-42.611-12.17-71.389-12.17-28.769 0-54.475 4.733-71.384 12.165"/><path fill="#FFF" d="M99.98 150.387c-28.828.003-54.583 4.77-71.515 12.261l.13.146c16.909-7.432 42.616-12.165 71.384-12.165 28.777 0 54.489 4.735 71.389 12.17l.132-.148c-16.923-7.494-42.685-12.264-71.52-12.264"/><path fill="#FFF" d="m28.334 162.499.131.148c16.932-7.491 42.687-12.258 71.515-12.261 28.835 0 54.597 4.771 71.521 12.264l.132-.149c-16.944-7.55-42.756-12.356-71.652-12.356-28.885 0-54.692 4.805-71.647 12.354"/><path fill="#FFF" d="M99.98 149.9c-28.94 0-54.796 4.846-71.773 12.455l.127.144c16.955-7.549 42.762-12.354 71.646-12.354 28.896 0 54.708 4.807 71.652 12.356l.127-.143C154.79 154.747 128.931 149.9 99.98 149.9"/><path fill="#FFF" d="M28.077 162.209q.065.075.13.146C45.184 154.746 71.04 149.9 99.98 149.9c28.951 0 54.81 4.847 71.779 12.458l.13-.146c-16.99-7.669-42.899-12.55-71.909-12.55-29.001 0-54.906 4.88-71.903 12.547"/><path fill="#FFF" d="M99.98 149.416c-29.06.003-55.012 4.923-72.03 12.65l.126.143c16.998-7.667 42.903-12.547 71.903-12.547 29.01 0 54.919 4.881 71.909 12.55l.128-.145c-17.01-7.728-42.968-12.651-72.036-12.651"/><path fill="#FFF" d="M27.823 161.918q.063.075.127.148c17.018-7.728 42.97-12.647 72.03-12.65 29.068 0 55.026 4.923 72.037 12.651q.062-.073.126-.146c-17.035-7.785-43.039-12.747-72.163-12.747-29.113 0-55.115 4.961-72.157 12.744"/><path fill="#FFF" d="M99.98 148.936c-29.17 0-55.218 4.994-72.281 12.836l.124.146c17.042-7.783 43.044-12.744 72.157-12.744 29.124 0 55.128 4.962 72.163 12.747l.125-.148c-17.057-7.842-43.109-12.837-72.288-12.837"/><path fill="#FFF" d="m27.667 161.732.033.039c17.063-7.842 43.111-12.836 72.281-12.836 29.179 0 55.231 4.995 72.288 12.837l.041-.049c-17.106-7.881-43.156-12.897-72.315-12.897-29.164 0-55.216 5.021-72.328 12.906"/><path fill="#FFF" d="M100.011 148.724c-29.159 0-55.215 5.043-72.378 12.97l.033.039c17.113-7.886 43.164-12.906 72.327-12.906 29.159 0 55.209 5.017 72.315 12.897l.042-.049c-17.157-7.916-43.202-12.951-72.339-12.951"/><path fill="#FFF" d="m27.599 161.652.035.041c17.163-7.927 43.219-12.97 72.378-12.97 29.137 0 55.182 5.035 72.339 12.951l.04-.047c-17.209-7.954-43.25-13.008-72.37-13.008-29.148.001-55.209 5.065-72.422 13.033"/><path fill="#FFF" d="M100.034 148.508c-29.143 0-55.208 5.091-72.471 13.104l.035.041c17.213-7.969 43.274-13.032 72.422-13.032 29.121 0 55.161 5.054 72.37 13.008l.044-.052c-17.257-7.993-43.291-13.069-72.4-13.069"/><path fill="#FFF" d="m27.526 161.566.038.045c17.262-8.013 43.328-13.104 72.471-13.104 29.109 0 55.143 5.076 72.4 13.068l.042-.051c-17.307-8.029-43.338-13.125-72.434-13.125-29.139.001-55.207 5.115-72.517 13.167"/><path fill="#FFF" d="M100.057 148.297c-29.137 0-55.206 5.136-72.563 13.232l.032.037c17.311-8.053 43.378-13.166 72.517-13.166 29.096 0 55.127 5.096 72.434 13.125l.038-.045c-17.352-8.068-43.377-13.183-72.458-13.183"/><path fill="#FFF" d="m27.458 161.486.037.043c17.357-8.097 43.426-13.232 72.563-13.232 29.081 0 55.106 5.115 72.458 13.184l.045-.053c-17.4-8.104-43.419-13.238-72.49-13.238-29.133-.001-55.208 5.159-72.613 13.296"/><path fill="#FFF" d="M100.079 148.081c-29.127 0-55.207 5.185-72.658 13.361l.037.044c17.405-8.138 43.48-13.297 72.612-13.297 29.071 0 55.09 5.135 72.49 13.238l.042-.05c-17.448-8.139-43.463-13.296-72.523-13.296"/><path fill="#FFF" d="m27.387 161.402.034.04c17.452-8.177 43.531-13.361 72.658-13.361 29.06 0 55.075 5.157 72.522 13.297l.042-.05c-17.496-8.176-43.506-13.351-72.552-13.351-29.123.001-55.203 5.207-72.704 13.425"/><path fill="#FFF" d="M100.106 147.875c-29.122 0-55.209 5.229-72.754 13.485l.035.042c17.501-8.219 43.581-13.425 72.705-13.425 29.046 0 55.056 5.175 72.552 13.351l.042-.051c-17.539-8.209-43.546-13.402-72.58-13.402"/><path fill="#FFF" d="m27.309 161.311.043.05c17.544-8.257 43.632-13.485 72.754-13.485 29.034 0 55.042 5.193 72.581 13.402l.047-.056c-17.587-8.245-43.597-13.456-72.619-13.456-29.119 0-55.214 5.248-72.806 13.545"/><path fill="#FFF" d="M100.128 147.663c-29.117 0-55.216 5.271-72.854 13.606l.034.041c17.592-8.297 43.687-13.545 72.806-13.545 29.022 0 55.032 5.211 72.619 13.456l.043-.052c-17.629-8.276-43.636-13.506-72.648-13.506"/><path fill="#FFF" d="m27.238 161.227.037.043c17.637-8.335 43.737-13.606 72.854-13.606 29.011 0 55.019 5.229 72.649 13.507l.045-.053c-17.678-8.313-43.681-13.563-72.681-13.563-29.116 0-55.221 5.296-72.904 13.672"/><path fill="#FFF" d="M100.16 147.447c-29.116 0-55.232 5.318-72.959 13.734l.038.045c17.683-8.376 43.788-13.672 72.903-13.672 29 0 55.003 5.249 72.681 13.563q.024-.028.047-.057c-17.723-8.346-43.726-13.613-72.71-13.613"/><path fill="#FFF" d="m27.16 161.134.041.048c17.727-8.416 43.843-13.734 72.959-13.734 28.984 0 54.988 5.267 72.71 13.613l.045-.053c-17.764-8.38-43.769-13.664-72.751-13.664-29.109 0-55.232 5.338-73.004 13.79"/><path fill="#FFF" d="M100.182 147.231c-29.114 0-55.246 5.361-73.063 13.854l.041.048c17.771-8.452 43.895-13.79 73.004-13.79 28.982 0 54.987 5.284 72.751 13.664l.05-.06c-17.808-8.414-43.818-13.716-72.783-13.716"/><path fill="#FFF" d="m27.078 161.037.042.049c17.816-8.493 43.948-13.854 73.063-13.854 28.965 0 54.975 5.302 72.783 13.717l.045-.054c-17.851-8.447-43.857-13.766-72.819-13.766-29.114 0-55.254 5.378-73.114 13.908"/><path fill="#FFF" d="M100.205 147.025c-29.113 0-55.264 5.396-73.167 13.963l.041.049c17.86-8.53 44-13.908 73.114-13.908 28.962 0 54.968 5.318 72.819 13.766l.046-.054c-17.896-8.48-43.9-13.816-72.853-13.816"/><path fill="#FFF" d="m26.995 160.939.042.049c17.903-8.566 44.054-13.963 73.167-13.963 28.954 0 54.958 5.336 72.852 13.815l.05-.059c-17.937-8.514-43.937-13.87-72.883-13.87-29.117.001-55.279 5.422-73.228 14.028"/><path fill="#FFF" d="M100.231 146.813c-29.117 0-55.284 5.439-73.273 14.081l.037.045c17.949-8.606 44.111-14.027 73.228-14.027 28.947 0 54.947 5.356 72.883 13.87l.044-.053c-17.982-8.544-43.983-13.916-72.919-13.916"/><path fill="#FFF" d="m26.918 160.849.04.046c17.99-8.642 44.156-14.081 73.273-14.081 28.935 0 54.937 5.371 72.919 13.916l.046-.056c-18.022-8.575-44.023-13.963-72.952-13.963-29.118 0-55.291 5.46-73.326 14.138"/><path fill="#FFF" d="M100.259 146.598c-29.126 0-55.306 5.484-73.382 14.201l.042.05c18.034-8.678 44.208-14.138 73.327-14.138 28.928 0 54.93 5.388 72.952 13.963q.026-.03.05-.06c-18.064-8.609-44.065-14.016-72.989-14.016"/><path fill="#FFF" d="m26.837 160.752.04.047c18.076-8.717 44.256-14.201 73.382-14.201 28.924 0 54.925 5.407 72.988 14.017l.046-.055c-18.104-8.642-44.106-14.065-73.021-14.065-29.127-.001-55.315 5.503-73.435 14.257"/><path fill="#FFF" d="M100.281 146.387c-29.127 0-55.324 5.526-73.485 14.317l.041.048c18.12-8.754 44.308-14.258 73.435-14.258 28.916 0 54.918 5.424 73.021 14.065l.049-.058c-18.143-8.672-44.148-14.114-73.061-14.114"/><path fill="#FFF" d="m26.757 160.657.039.047c18.161-8.791 44.357-14.317 73.485-14.317 28.913 0 54.917 5.442 73.061 14.115l.048-.057c-18.185-8.705-44.19-14.162-73.096-14.162-29.13 0-55.334 5.546-73.537 14.374"/><path fill="#FFF" d="M100.308 146.176c-29.137 0-55.354 5.564-73.597 14.428l.046.054c18.203-8.828 44.407-14.374 73.537-14.374 28.906 0 54.911 5.457 73.096 14.162l.054-.063c-18.225-8.736-44.233-14.207-73.136-14.207"/><path fill="#FFF" d="m26.669 160.554.042.05c18.243-8.863 44.46-14.428 73.597-14.428 28.903 0 54.911 5.472 73.136 14.206q.025-.029.048-.058c-18.266-8.766-44.278-14.252-73.176-14.252-29.134 0-55.359 5.583-73.647 14.482"/><path fill="#FFF" d="M100.331 145.965c-29.143 0-55.377 5.604-73.704 14.538l.042.051c18.287-8.898 44.512-14.481 73.647-14.481 28.897 0 54.91 5.486 73.176 14.252l.051-.061c-18.305-8.795-44.321-14.299-73.212-14.299"/><path fill="#FFF" d="m26.582 160.45.045.053c18.327-8.934 44.561-14.538 73.704-14.538 28.892 0 54.908 5.504 73.213 14.299l.051-.063c-18.345-8.823-44.364-14.339-73.25-14.339-29.148-.001-55.394 5.62-73.763 14.588"/><path fill="#FFF" d="M100.353 145.753c-29.149 0-55.405 5.644-73.813 14.647l.042.05c18.369-8.968 44.615-14.589 73.762-14.589 28.886 0 54.905 5.516 73.25 14.339l.047-.058c-18.383-8.855-44.406-14.389-73.288-14.389"/><path fill="#FFF" d="m26.496 160.349.044.052c18.408-9.004 44.664-14.647 73.813-14.647 28.882 0 54.905 5.534 73.288 14.39l.052-.065c-18.424-8.882-44.45-14.428-73.322-14.428-29.156-.002-55.425 5.659-73.875 14.698"/><path fill="#FFF" d="M99.984 86.632c-43 0-78.876 23.484-87.327 51.245a95.3 95.3 0 0 0 13.838 22.472c18.45-9.039 44.719-14.699 73.875-14.699 28.873 0 54.898 5.546 73.322 14.428a95.3 95.3 0 0 0 13.599-22.161c-8.427-27.787-44.324-51.285-87.307-51.285"/><path fill="#007BC7" d="M99.982 123.709c-32.313 0-62.289 5.475-87.043 14.746 14.84 33.314 48.223 56.51 87.057 56.51 38.816 0 72.199-23.209 87.065-56.51-24.749-9.271-54.775-14.746-87.079-14.746"/><path fill="#FFF" d="M537.681 127.046h20.615c1.775.185 3.293.751 4.553 2.81.971 1.595.84 6.988.84 6.988v37.086c.266 3.51 1.945 9.572 14.713 10.07h94.586v-13.086h-80.645c-5.082.318-5.604-2.189-5.73-5.271v-31.068c0-3.074-.418-5.875-3.072-7.528h99.793v-13.015H537.681zM613.972 35.993c15.734 0 28.49 9.937 28.49 25.621 0 15.694-12.756 25.639-28.49 25.639-15.738 0-28.465-9.945-28.465-25.639 0-15.684 12.727-25.621 28.465-25.621m0 64.483c28.719 0 51.994-15.662 51.994-38.884 0-23.212-23.275-38.884-51.994-38.884-28.703 0-51.971 15.671-51.971 38.884 0 23.221 23.268 38.884 51.971 38.884M227.05 132.341h62.02v55.944h23.833v-55.944h62.02v-13.577H227.05zM300.976 36.482c16.512 0 29.904 10.427 29.904 26.893 0 16.471-13.393 26.911-29.904 26.911-16.521 0-29.909-10.44-29.909-26.911 0-16.466 13.389-26.893 29.909-26.893m0 67.7c30.143 0 54.586-16.461 54.586-40.833 0-24.395-24.444-40.83-54.586-40.83-30.147 0-54.591 16.435-54.591 40.83 0 24.371 24.444 40.833 54.591 40.833M715.003 74.167c0-13.029 8.764-21.267 19.568-21.267 10.813 0 19.568 8.238 19.568 21.267 0 13.033-8.756 21.271-19.568 21.271-10.804 0-19.568-8.238-19.568-21.271m9.668-43.535v4.737h-32.732v12.97h15.586c-8.201 6.018-13.387 14.961-13.387 25.824 0 20.323 18.111 34.048 40.447 34.048 22.332 0 40.434-13.726 40.434-34.048 0-10.862-5.186-19.806-13.383-25.824h14.48v-12.97h-31.043v-7.316c0-3.6-1.137-5.55-6.08-5.55h-16.197c0-.001 1.875 1.104 1.875 8.129M779.181 174.604c-14.852 0-26.889-9.383-26.889-24.205s12.037-24.201 26.889-24.201c14.863 0 26.908 9.379 26.908 24.201s-12.045 24.205-26.908 24.205m0-61.364c-27.674 0-50.113 14.952-50.113 37.127 0 22.174 22.439 37.126 50.113 37.126 27.689 0 50.139-14.952 50.139-37.126 0-22.175-22.449-37.127-50.139-37.127M810.886 38.258v18.678h-8.654V30.568c0-3.474-1.174-5.343-6.328-5.343h-14.418s1.938 1.721 1.938 13.033v67.791h18.809V70.382h8.654v35.667h18.801v-75.48c0-3.474-1.16-5.343-6.328-5.343h-14.428c-.001-.001 1.954 1.886 1.954 13.032M492.775 183.936h22.283V30.661c0-3.523-2.338-5.425-7.588-5.425h-16.686s1.977 1.546 1.977 13.227z"/><path fill="#FFF" d="M492.804 116.598c0 12.266-18.875 12.014-18.875 12.014H419.24c-5.105.328-5.618-2.176-5.748-5.264V90.343h47.211c5.232 0 6.404-1.919 6.404-5.438V35.532c0-3.532-1.172-5.393-6.404-5.393h-72.927v13.123l56.11-.005v33.909h-55.634s1.991 2.544 1.991 9.402v45.081c.256 3.52 1.946 9.6 14.746 10.09h64.001s25.061.764 25.061-7.164"/></svg>